<svg width="462" height="67" viewBox="0 0 462 67" fill="none" xmlns="http://www.w3.org/2000/svg">
<path d="M416.416 1.54999H461.686V15.86H447.196V50.6H461.686V65H416.416V50.6H430.906V15.86H416.416V1.54999Z" fill="#BCBCC2"/>
<path d="M353.305 41.42V1.54999H369.685V33.59C369.685 44.66 369.685 51.77 382.825 51.77C395.965 51.77 396.145 44.57 396.145 33.59V1.54999H412.525V41.42C412.525 57.44 402.085 66.17 382.825 66.17C363.655 66.17 353.305 57.44 353.305 41.42Z" fill="#BCBCC2"/>
<path d="M307.779 65.9C291.849 65.9 283.659 60.05 283.659 48.53H299.139C299.139 53.03 301.839 55.01 308.139 55.01C312.549 55.01 314.259 54.02 314.259 51.86C314.259 50.33 313.179 49.34 310.839 48.71L296.529 44.84C291.669 43.58 285.009 40.16 285.009 32.06C285.009 23.24 292.839 18.56 305.889 18.56C320.109 18.56 329.019 24.14 329.019 35.21H313.629C313.629 31.25 311.289 29.36 305.979 29.36C302.379 29.36 300.399 30.35 300.399 32.24C300.399 33.86 302.019 34.94 304.899 35.66L315.519 38.18C322.809 39.89 329.739 43.4 329.739 52.13C329.739 60.95 322.629 65.9 307.779 65.9Z" fill="#BCBCC2"/>
<path d="M227.367 52.58C227.367 44.66 231.957 39.98 245.907 38.54L259.767 37.01C259.767 32.24 257.067 30.35 251.847 30.35C246.267 30.35 243.117 32.69 242.937 36.74H228.447C228.717 24.77 238.797 18.56 251.307 18.56C263.907 18.56 275.247 24.23 275.247 37.37V51.41H281.817V65H271.377C266.967 65 264.357 62.48 264.357 58.07V57.62L266.787 52.13H263.007C261.297 59.51 256.977 65.9 244.197 65.9C229.797 65.9 227.367 57.26 227.367 52.58ZM242.487 49.97C242.487 52.94 245.187 53.66 248.157 53.66C254.547 53.66 259.767 50.24 259.767 44.75L248.787 46.37C244.737 47 242.487 47.45 242.487 49.97Z" fill="#BCBCC2"/>
<path d="M213.731 19.46H228.851L217.781 65H185.831L174.671 19.46H190.151L200.051 61.13H203.921L213.731 19.46Z" fill="#BCBCC2"/>
<path d="M122.813 65V19.46H138.203V24.59L135.323 33.14H139.103C140.903 25.04 146.483 18.56 156.203 18.56C167.993 18.56 175.283 26.39 175.283 40.79V65H159.803V43.31C159.803 35.12 157.553 32.15 150.713 32.15C143.243 32.15 138.203 35.66 138.203 48.53V65H122.813Z" fill="#BCBCC2"/>
<path d="M66.2533 52.58C66.2533 44.66 70.8433 39.98 84.7933 38.54L98.6533 37.01C98.6533 32.24 95.9533 30.35 90.7333 30.35C85.1533 30.35 82.0033 32.69 81.8233 36.74H67.3333C67.6033 24.77 77.6833 18.56 90.1933 18.56C102.793 18.56 114.133 24.23 114.133 37.37V51.41H120.703V65H110.263C105.853 65 103.243 62.48 103.243 58.07V57.62L105.673 52.13H101.893C100.183 59.51 95.8633 65.9 83.0833 65.9C68.6833 65.9 66.2533 57.26 66.2533 52.58ZM81.3733 49.97C81.3733 52.94 84.0733 53.66 87.0433 53.66C93.4333 53.66 98.6533 50.24 98.6533 44.75L87.6733 46.37C83.6233 47 81.3733 47.45 81.3733 49.97Z" fill="#BCBCC2"/>
<path d="M33.726 66.26C12.936 66.26 0.06604 52.04 0.06604 33.23C0.06604 14.51 12.936 0.289993 33.726 0.289993C51.906 0.289993 63.966 10.1 65.856 26.03H49.026C47.676 19.19 41.826 15.14 33.816 15.14C24.006 15.14 16.986 20.72 16.986 33.23C16.986 45.83 24.006 51.41 33.816 51.41C41.826 51.41 47.676 47.27 49.026 40.43H65.856C63.966 56.45 51.906 66.26 33.726 66.26Z" fill="#BCBCC2"/>
</svg>
