<svg width="487" height="367" viewBox="0 0 487 367" fill="none" xmlns="http://www.w3.org/2000/svg">
<g clip-path="url(#clip0_50_7472)">
<rect x="24" width="463" height="367" rx="8" fill="#242429"/>
<circle opacity="0.5" cx="40" cy="15" r="5" fill="#72727A"/>
<circle opacity="0.5" cx="56" cy="15" r="5" fill="#72727A"/>
<circle opacity="0.5" cx="72" cy="15" r="5" fill="#72727A"/>
<rect x="24" y="30" width="463" height="1" fill="#414147"/>
<rect x="56" y="31" width="1" height="362" fill="#414147"/>
<rect x="32" y="39" width="16" height="16" rx="4" fill="#37373D"/>
<rect x="32" y="63" width="16" height="16" rx="4" fill="#37373D"/>
<rect x="32" y="87" width="16" height="16" rx="4" fill="#37373D"/>
<g filter="url(#filter0_bdi_50_7472)">
<rect x="190" y="66" width="163" height="66" rx="4" fill="#37373D"/>
<rect x="190" y="66" width="163" height="66" rx="4" fill="url(#paint0_radial_50_7472)"/>
<rect x="190.5" y="66.5" width="162" height="65" rx="3.5" stroke="#E8E8ED" stroke-opacity="0.08"/>
</g>
<g filter="url(#filter1_bdi_50_7472)">
<rect x="97" y="156" width="163" height="74" rx="4" fill="#37373D"/>
<rect x="97" y="156" width="163" height="74" rx="4" fill="url(#paint1_radial_50_7472)"/>
<rect x="97.5" y="156.5" width="162" height="73" rx="3.5" stroke="#E8E8ED" stroke-opacity="0.08"/>
</g>
<g filter="url(#filter2_bdi_50_7472)">
<rect x="284" y="156" width="163" height="74" rx="4" fill="#37373D"/>
<rect x="284" y="156" width="163" height="74" rx="4" fill="url(#paint2_radial_50_7472)"/>
<rect x="284.5" y="156.5" width="162" height="73" rx="3.5" stroke="#E8E8ED" stroke-opacity="0.08"/>
</g>
<g filter="url(#filter3_i_50_7472)">
<rect x="182" y="266" width="162" height="72" rx="14" stroke="#6EE7B7" stroke-width="2" stroke-dasharray="4 4"/>
</g>
<g filter="url(#filter4_d_50_7472)">
<path d="M272 131C272 156.519 176 131 176 157" stroke="#6366F1" stroke-width="1.5" stroke-linecap="round"/>
</g>
<g filter="url(#filter5_d_50_7472)">
<path d="M272 131C272 154.077 368 132.923 368 156" stroke="#6366F1" stroke-width="1.5" stroke-linecap="round"/>
</g>
<g filter="url(#filter6_d_50_7472)">
<path d="M176 230C176 254 272 232 272 256" stroke="#6366F1" stroke-width="1.5" stroke-linecap="round"/>
</g>
<circle cx="272" cy="131" r="3" fill="#6366F1"/>
<circle cx="368" cy="156" r="3" fill="#6366F1"/>
<circle cx="176" cy="157" r="3" fill="#6366F1"/>
<circle cx="176" cy="230" r="3" fill="#6366F1"/>
<g filter="url(#filter7_bdi_50_7472)">
<rect x="190" y="255" width="163" height="74" rx="4" fill="#37373D"/>
<rect x="190" y="255" width="163" height="74" rx="4" fill="url(#paint3_radial_50_7472)"/>
<rect x="190.5" y="255.5" width="162" height="73" rx="3.5" stroke="#E8E8ED" stroke-opacity="0.08"/>
</g>
<circle cx="272" cy="256" r="3" fill="#6366F1"/>
<rect x="301" y="330" width="31" height="23" rx="4" fill="#242429"/>
<path fill-rule="evenodd" clip-rule="evenodd" d="M313.465 342.21C313.497 342.342 313.526 342.462 313.556 342.574C313.627 342.847 313.594 342.801 313.458 342.612L313.458 342.612L313.458 342.612C313.425 342.567 313.386 342.513 313.342 342.453C313.274 342.363 313.226 342.295 313.184 342.235C313.118 342.14 313.064 342.063 312.965 341.944C312.788 341.73 312.44 341.386 312.215 341.196C311.825 340.865 311.496 340.709 310.977 340.659C310.29 340.594 309.84 340.897 309.615 341.491C309.474 341.862 309.582 342.391 309.805 342.816C309.951 343.097 310.233 343.405 310.513 343.712C310.726 343.945 310.938 344.177 311.089 344.395C311.413 344.867 311.663 345.295 311.868 345.646C312.051 345.958 312.198 346.211 312.332 346.38L313.164 347.301C313.309 347.429 313.5 347.611 313.694 347.794C313.917 348.006 314.144 348.222 314.308 348.361C314.72 348.708 314.535 349.719 314.535 349.719C314.79 349.722 315.063 349.726 315.339 349.731L315.339 349.731H315.339H315.339C316.234 349.747 317.163 349.763 317.674 349.699C318.016 349.656 318.5 348.969 318.725 348.586C318.868 348.344 319.235 348.281 319.407 348.609C319.532 348.846 320.016 349.625 320.407 349.687C320.839 349.757 321.641 349.653 321.641 349.653C321.641 349.653 321.496 349.129 321.52 348.73C321.526 348.622 321.528 348.543 321.529 348.474C321.533 348.289 321.535 348.176 321.621 347.765C321.739 347.203 322.813 345.953 322.813 345.953C323.094 345.547 323.379 344.87 323.465 344.569C323.565 344.216 323.69 343.506 323.772 343.037L323.773 343.037L323.773 343.036C323.792 342.924 323.81 342.825 323.824 342.749C323.89 342.383 324.036 341.595 324.164 341.148L324.173 341.116C324.273 340.766 324.456 340.127 324.516 339.5C324.522 339.431 324.53 339.358 324.538 339.284C324.575 338.94 324.614 338.572 324.544 338.395C324.352 337.916 323.783 337.569 323.243 337.804C322.99 337.917 322.775 338.052 322.575 338.365C322.533 338.43 322.496 338.488 322.462 338.54L322.462 338.54C322.33 338.744 322.25 338.867 322.16 339.053C322.042 339.298 321.85 339.787 321.801 339.912C321.723 340.115 321.629 340.377 321.535 340.657C321.501 340.761 321.508 340.564 321.511 340.494V340.494L321.512 340.475C321.516 340.234 321.522 340.025 321.527 339.825L321.527 339.825L321.527 339.825C321.538 339.364 321.549 338.959 321.549 338.354C321.549 338.231 321.556 338.09 321.563 337.941V337.941V337.941V337.941C321.575 337.669 321.589 337.371 321.569 337.109C321.533 336.648 321.372 336.261 321.087 335.956C320.796 335.643 320.114 335.51 319.683 335.713C319.294 335.896 319.033 336.209 318.889 336.642C318.707 337.188 318.64 338.668 318.594 339.691V339.691L318.594 339.691L318.594 339.691C318.576 340.08 318.561 340.403 318.545 340.584C318.535 340.691 318.532 340.068 318.531 339.592C318.53 339.375 318.529 339.188 318.528 339.115C318.526 339.023 318.524 338.928 318.522 338.829V338.829V338.829C318.513 338.357 318.502 337.789 318.513 336.941C318.514 336.821 318.434 335.943 318.42 335.834C318.359 335.362 318.156 334.985 317.733 334.812C317.258 334.614 316.744 334.628 316.332 334.829C315.964 335.008 315.737 335.308 315.659 335.808C315.639 335.936 315.577 336.397 315.575 336.523C315.553 337.639 315.578 338.433 315.613 339.462C315.613 339.482 315.624 339.763 315.635 340.043C315.645 340.324 315.656 340.604 315.657 340.624L315.572 340.172C315.525 339.859 315.354 338.933 314.961 337.941C314.601 337.031 314.532 336.859 314.244 336.399C314.072 336.123 313.699 335.741 313.328 335.611C312.933 335.472 312.224 335.623 311.971 335.962C311.76 336.244 311.608 336.659 311.727 337.168C311.82 337.56 312.045 338.279 312.184 338.608C312.252 338.77 312.314 338.908 312.373 339.039L312.373 339.039C312.482 339.279 312.579 339.495 312.68 339.789C312.731 339.939 312.79 340.077 312.852 340.224C312.946 340.446 313.049 340.688 313.15 341.022C313.297 341.517 313.389 341.897 313.465 342.21L313.465 342.21ZM321 343.5C321 343.224 320.776 343 320.5 343C320.224 343 320 343.224 320 343.5V346.5C320 346.776 320.224 347 320.5 347C320.776 347 321 346.776 321 346.5V343.5ZM318.5 343C318.776 343 319 343.224 319 343.5V346.5C319 346.776 318.776 347 318.5 347C318.224 347 318 346.776 318 346.5V343.5C318 343.224 318.224 343 318.5 343ZM317 343.5C317 343.224 316.776 343 316.5 343C316.224 343 316 343.224 316 343.5V346.5C316 346.776 316.224 347 316.5 347C316.776 347 317 346.776 317 346.5V343.5Z" fill="#6EE7B7"/>
<g opacity="0.3" filter="url(#filter8_f_50_7472)">
<rect x="75.5" y="47.5" width="394" height="436" rx="15.5" stroke="url(#paint4_linear_50_7472)" stroke-dasharray="4 4"/>
</g>
<rect opacity="0.64" x="73.5" y="47.5" width="397" height="396" rx="15.5" stroke="url(#paint5_linear_50_7472)" stroke-dasharray="4 4"/>
<rect x="62" y="34" width="96" height="26" rx="7" fill="url(#paint6_linear_50_7472)"/>
<rect x="62" y="34" width="96" height="26" rx="7" stroke="#242429" stroke-width="6"/>
<mask id="path-33-outside-1_50_7472" maskUnits="userSpaceOnUse" x="73" y="41" width="73" height="12" fill="black">
<rect fill="white" x="73" y="41" width="73" height="12"/>
<path d="M79.288 50.328L73.912 47.796V46.296L79.288 43.764V45.144L75.808 46.752C75.648 46.824 75.488 46.888 75.328 46.944C75.176 46.992 75.056 47.024 74.968 47.04C75.056 47.056 75.18 47.088 75.34 47.136C75.5 47.184 75.656 47.244 75.808 47.316L79.288 48.924V50.328ZM84.0113 51.12C83.4433 51.12 82.9513 51.016 82.5353 50.808C82.1193 50.592 81.7953 50.292 81.5633 49.908C81.3393 49.516 81.2273 49.056 81.2273 48.528V44.712C81.2273 44.184 81.3393 43.728 81.5633 43.344C81.7953 42.952 82.1193 42.652 82.5353 42.444C82.9513 42.228 83.4433 42.12 84.0113 42.12C84.5713 42.12 85.0593 42.228 85.4753 42.444C85.8913 42.652 86.2153 42.952 86.4473 43.344C86.6793 43.728 86.7953 44.184 86.7953 44.712H85.2833C85.2833 44.304 85.1713 43.992 84.9473 43.776C84.7313 43.552 84.4193 43.44 84.0113 43.44C83.6033 43.44 83.2873 43.552 83.0633 43.776C82.8393 43.992 82.7273 44.304 82.7273 44.712V48.528C82.7273 48.936 82.8393 49.252 83.0633 49.476C83.2873 49.692 83.6033 49.8 84.0113 49.8C84.4193 49.8 84.7313 49.692 84.9473 49.476C85.1713 49.252 85.2833 48.936 85.2833 48.528H86.7953C86.7953 49.056 86.6793 49.516 86.4473 49.908C86.2153 50.292 85.8913 50.592 85.4753 50.808C85.0593 51.016 84.5713 51.12 84.0113 51.12ZM90.4986 51.12C89.8266 51.12 89.2946 50.932 88.9026 50.556C88.5186 50.172 88.3266 49.672 88.3266 49.056C88.3266 48.416 88.5466 47.908 88.9866 47.532C89.4266 47.148 90.0306 46.956 90.7986 46.956H92.4066V46.488C92.4066 45.824 92.0186 45.492 91.2426 45.492C90.8906 45.492 90.6106 45.56 90.4026 45.696C90.1946 45.832 90.0786 46.024 90.0546 46.272H88.6146C88.6466 45.68 88.8946 45.2 89.3586 44.832C89.8306 44.464 90.4626 44.28 91.2546 44.28C92.0946 44.28 92.7466 44.476 93.2106 44.868C93.6746 45.26 93.9066 45.812 93.9066 46.524V51H92.4426V49.764C92.3866 50.188 92.1866 50.52 91.8426 50.76C91.4986 51 91.0506 51.12 90.4986 51.12ZM90.9786 49.896C91.4186 49.896 91.7666 49.788 92.0226 49.572C92.2786 49.356 92.4066 49.068 92.4066 48.708V47.928H90.8706C90.5426 47.928 90.2826 48.02 90.0906 48.204C89.8986 48.388 89.8026 48.624 89.8026 48.912C89.8026 49.208 89.9026 49.448 90.1026 49.632C90.3106 49.808 90.6026 49.896 90.9786 49.896ZM95.8699 51V44.4H97.3339V45.636C97.4139 45.22 97.6099 44.892 97.9219 44.652C98.2339 44.404 98.6299 44.28 99.1099 44.28C99.7579 44.28 100.274 44.496 100.658 44.928C101.05 45.36 101.246 45.94 101.246 46.668V51H99.7459V46.848C99.7459 46.44 99.6379 46.128 99.4219 45.912C99.2139 45.688 98.9299 45.576 98.5699 45.576C98.1939 45.576 97.8979 45.688 97.6819 45.912C97.4739 46.136 97.3699 46.456 97.3699 46.872V51H95.8699ZM104.913 51L102.693 44.4H104.265L105.537 48.408C105.617 48.648 105.685 48.892 105.741 49.14C105.805 49.38 105.849 49.588 105.873 49.764C105.905 49.588 105.945 49.38 105.993 49.14C106.049 48.892 106.113 48.652 106.185 48.42L107.445 44.4H109.029L106.821 51H104.913ZM112.445 51.12C111.773 51.12 111.241 50.932 110.849 50.556C110.465 50.172 110.273 49.672 110.273 49.056C110.273 48.416 110.493 47.908 110.933 47.532C111.373 47.148 111.977 46.956 112.745 46.956H114.353V46.488C114.353 45.824 113.965 45.492 113.189 45.492C112.837 45.492 112.557 45.56 112.349 45.696C112.141 45.832 112.025 46.024 112.001 46.272H110.561C110.593 45.68 110.841 45.2 111.305 44.832C111.777 44.464 112.409 44.28 113.201 44.28C114.041 44.28 114.693 44.476 115.157 44.868C115.621 45.26 115.853 45.812 115.853 46.524V51H114.389V49.764C114.333 50.188 114.133 50.52 113.789 50.76C113.445 51 112.997 51.12 112.445 51.12ZM112.925 49.896C113.365 49.896 113.713 49.788 113.969 49.572C114.225 49.356 114.353 49.068 114.353 48.708V47.928H112.817C112.489 47.928 112.229 48.02 112.037 48.204C111.845 48.388 111.749 48.624 111.749 48.912C111.749 49.208 111.849 49.448 112.049 49.632C112.257 49.808 112.549 49.896 112.925 49.896ZM120.216 51.108C119.432 51.108 118.812 50.932 118.356 50.58C117.9 50.22 117.672 49.736 117.672 49.128H119.148C119.148 49.384 119.24 49.58 119.424 49.716C119.616 49.852 119.88 49.92 120.216 49.92H120.744C121.104 49.92 121.38 49.852 121.572 49.716C121.772 49.58 121.872 49.384 121.872 49.128C121.872 48.888 121.804 48.712 121.668 48.6C121.532 48.48 121.324 48.4 121.044 48.36L119.4 48.144C118.872 48.072 118.464 47.868 118.176 47.532C117.896 47.196 117.756 46.76 117.756 46.224C117.756 45.6 117.964 45.124 118.38 44.796C118.796 44.46 119.396 44.292 120.18 44.292H120.732C121.468 44.292 122.06 44.46 122.508 44.796C122.956 45.132 123.188 45.58 123.204 46.14H121.716C121.708 45.932 121.616 45.768 121.44 45.648C121.264 45.52 121.028 45.456 120.732 45.456H120.18C119.86 45.456 119.616 45.524 119.448 45.66C119.28 45.788 119.196 45.964 119.196 46.188C119.196 46.388 119.256 46.536 119.376 46.632C119.504 46.728 119.688 46.788 119.928 46.812L121.476 47.028C122.084 47.1 122.54 47.316 122.844 47.676C123.156 48.028 123.312 48.504 123.312 49.104C123.312 49.744 123.092 50.24 122.652 50.592C122.22 50.936 121.584 51.108 120.744 51.108H120.216ZM132.242 52.32L136.442 41.04H138.002L133.802 52.32H132.242ZM139.75 50.328V48.948L143.23 47.34C143.39 47.268 143.546 47.208 143.698 47.16C143.858 47.112 143.982 47.076 144.07 47.052C143.982 47.036 143.858 47.004 143.698 46.956C143.538 46.908 143.382 46.852 143.23 46.788L139.75 45.168V43.764L145.126 46.296V47.796L139.75 50.328Z"/>
</mask>
<path d="M79.288 50.328L73.912 47.796V46.296L79.288 43.764V45.144L75.808 46.752C75.648 46.824 75.488 46.888 75.328 46.944C75.176 46.992 75.056 47.024 74.968 47.04C75.056 47.056 75.18 47.088 75.34 47.136C75.5 47.184 75.656 47.244 75.808 47.316L79.288 48.924V50.328ZM84.0113 51.12C83.4433 51.12 82.9513 51.016 82.5353 50.808C82.1193 50.592 81.7953 50.292 81.5633 49.908C81.3393 49.516 81.2273 49.056 81.2273 48.528V44.712C81.2273 44.184 81.3393 43.728 81.5633 43.344C81.7953 42.952 82.1193 42.652 82.5353 42.444C82.9513 42.228 83.4433 42.12 84.0113 42.12C84.5713 42.12 85.0593 42.228 85.4753 42.444C85.8913 42.652 86.2153 42.952 86.4473 43.344C86.6793 43.728 86.7953 44.184 86.7953 44.712H85.2833C85.2833 44.304 85.1713 43.992 84.9473 43.776C84.7313 43.552 84.4193 43.44 84.0113 43.44C83.6033 43.44 83.2873 43.552 83.0633 43.776C82.8393 43.992 82.7273 44.304 82.7273 44.712V48.528C82.7273 48.936 82.8393 49.252 83.0633 49.476C83.2873 49.692 83.6033 49.8 84.0113 49.8C84.4193 49.8 84.7313 49.692 84.9473 49.476C85.1713 49.252 85.2833 48.936 85.2833 48.528H86.7953C86.7953 49.056 86.6793 49.516 86.4473 49.908C86.2153 50.292 85.8913 50.592 85.4753 50.808C85.0593 51.016 84.5713 51.12 84.0113 51.12ZM90.4986 51.12C89.8266 51.12 89.2946 50.932 88.9026 50.556C88.5186 50.172 88.3266 49.672 88.3266 49.056C88.3266 48.416 88.5466 47.908 88.9866 47.532C89.4266 47.148 90.0306 46.956 90.7986 46.956H92.4066V46.488C92.4066 45.824 92.0186 45.492 91.2426 45.492C90.8906 45.492 90.6106 45.56 90.4026 45.696C90.1946 45.832 90.0786 46.024 90.0546 46.272H88.6146C88.6466 45.68 88.8946 45.2 89.3586 44.832C89.8306 44.464 90.4626 44.28 91.2546 44.28C92.0946 44.28 92.7466 44.476 93.2106 44.868C93.6746 45.26 93.9066 45.812 93.9066 46.524V51H92.4426V49.764C92.3866 50.188 92.1866 50.52 91.8426 50.76C91.4986 51 91.0506 51.12 90.4986 51.12ZM90.9786 49.896C91.4186 49.896 91.7666 49.788 92.0226 49.572C92.2786 49.356 92.4066 49.068 92.4066 48.708V47.928H90.8706C90.5426 47.928 90.2826 48.02 90.0906 48.204C89.8986 48.388 89.8026 48.624 89.8026 48.912C89.8026 49.208 89.9026 49.448 90.1026 49.632C90.3106 49.808 90.6026 49.896 90.9786 49.896ZM95.8699 51V44.4H97.3339V45.636C97.4139 45.22 97.6099 44.892 97.9219 44.652C98.2339 44.404 98.6299 44.28 99.1099 44.28C99.7579 44.28 100.274 44.496 100.658 44.928C101.05 45.36 101.246 45.94 101.246 46.668V51H99.7459V46.848C99.7459 46.44 99.6379 46.128 99.4219 45.912C99.2139 45.688 98.9299 45.576 98.5699 45.576C98.1939 45.576 97.8979 45.688 97.6819 45.912C97.4739 46.136 97.3699 46.456 97.3699 46.872V51H95.8699ZM104.913 51L102.693 44.4H104.265L105.537 48.408C105.617 48.648 105.685 48.892 105.741 49.14C105.805 49.38 105.849 49.588 105.873 49.764C105.905 49.588 105.945 49.38 105.993 49.14C106.049 48.892 106.113 48.652 106.185 48.42L107.445 44.4H109.029L106.821 51H104.913ZM112.445 51.12C111.773 51.12 111.241 50.932 110.849 50.556C110.465 50.172 110.273 49.672 110.273 49.056C110.273 48.416 110.493 47.908 110.933 47.532C111.373 47.148 111.977 46.956 112.745 46.956H114.353V46.488C114.353 45.824 113.965 45.492 113.189 45.492C112.837 45.492 112.557 45.56 112.349 45.696C112.141 45.832 112.025 46.024 112.001 46.272H110.561C110.593 45.68 110.841 45.2 111.305 44.832C111.777 44.464 112.409 44.28 113.201 44.28C114.041 44.28 114.693 44.476 115.157 44.868C115.621 45.26 115.853 45.812 115.853 46.524V51H114.389V49.764C114.333 50.188 114.133 50.52 113.789 50.76C113.445 51 112.997 51.12 112.445 51.12ZM112.925 49.896C113.365 49.896 113.713 49.788 113.969 49.572C114.225 49.356 114.353 49.068 114.353 48.708V47.928H112.817C112.489 47.928 112.229 48.02 112.037 48.204C111.845 48.388 111.749 48.624 111.749 48.912C111.749 49.208 111.849 49.448 112.049 49.632C112.257 49.808 112.549 49.896 112.925 49.896ZM120.216 51.108C119.432 51.108 118.812 50.932 118.356 50.58C117.9 50.22 117.672 49.736 117.672 49.128H119.148C119.148 49.384 119.24 49.58 119.424 49.716C119.616 49.852 119.88 49.92 120.216 49.92H120.744C121.104 49.92 121.38 49.852 121.572 49.716C121.772 49.58 121.872 49.384 121.872 49.128C121.872 48.888 121.804 48.712 121.668 48.6C121.532 48.48 121.324 48.4 121.044 48.36L119.4 48.144C118.872 48.072 118.464 47.868 118.176 47.532C117.896 47.196 117.756 46.76 117.756 46.224C117.756 45.6 117.964 45.124 118.38 44.796C118.796 44.46 119.396 44.292 120.18 44.292H120.732C121.468 44.292 122.06 44.46 122.508 44.796C122.956 45.132 123.188 45.58 123.204 46.14H121.716C121.708 45.932 121.616 45.768 121.44 45.648C121.264 45.52 121.028 45.456 120.732 45.456H120.18C119.86 45.456 119.616 45.524 119.448 45.66C119.28 45.788 119.196 45.964 119.196 46.188C119.196 46.388 119.256 46.536 119.376 46.632C119.504 46.728 119.688 46.788 119.928 46.812L121.476 47.028C122.084 47.1 122.54 47.316 122.844 47.676C123.156 48.028 123.312 48.504 123.312 49.104C123.312 49.744 123.092 50.24 122.652 50.592C122.22 50.936 121.584 51.108 120.744 51.108H120.216ZM132.242 52.32L136.442 41.04H138.002L133.802 52.32H132.242ZM139.75 50.328V48.948L143.23 47.34C143.39 47.268 143.546 47.208 143.698 47.16C143.858 47.112 143.982 47.076 144.07 47.052C143.982 47.036 143.858 47.004 143.698 46.956C143.538 46.908 143.382 46.852 143.23 46.788L139.75 45.168V43.764L145.126 46.296V47.796L139.75 50.328Z" fill="white"/>
<path d="M79.288 50.328L79.2795 50.3461L79.308 50.3595V50.328H79.288ZM73.912 47.796H73.892V47.8087L73.9035 47.8141L73.912 47.796ZM73.912 46.296L73.9035 46.2779L73.892 46.2833V46.296H73.912ZM79.288 43.764H79.308V43.7325L79.2795 43.7459L79.288 43.764ZM79.288 45.144L79.2964 45.1622L79.308 45.1568V45.144H79.288ZM75.808 46.752L75.8162 46.7702L75.8164 46.7702L75.808 46.752ZM75.328 46.944L75.334 46.9631L75.3346 46.9629L75.328 46.944ZM74.968 47.04L74.9644 47.0203V47.0597L74.968 47.04ZM75.34 47.136L75.3457 47.1168L75.3457 47.1168L75.34 47.136ZM75.808 47.316L75.7994 47.3341L75.7996 47.3342L75.808 47.316ZM79.288 48.924H79.308V48.9112L79.2964 48.9058L79.288 48.924ZM79.2965 50.3099L73.9205 47.7779L73.9035 47.8141L79.2795 50.3461L79.2965 50.3099ZM73.932 47.796V46.296H73.892V47.796H73.932ZM73.9205 46.3141L79.2965 43.7821L79.2795 43.7459L73.9035 46.2779L73.9205 46.3141ZM79.268 43.764V45.144H79.308V43.764H79.268ZM79.2796 45.1258L75.7996 46.7338L75.8164 46.7702L79.2964 45.1622L79.2796 45.1258ZM75.7998 46.7338C75.6403 46.8055 75.4808 46.8693 75.3214 46.9251L75.3346 46.9629C75.4952 46.9067 75.6557 46.8425 75.8162 46.7702L75.7998 46.7338ZM75.322 46.9249C75.1703 46.9728 75.0512 47.0045 74.9644 47.0203L74.9716 47.0597C75.0608 47.0435 75.1817 47.0112 75.334 46.9631L75.322 46.9249ZM74.9644 47.0597C75.0513 47.0755 75.1745 47.1072 75.3343 47.1552L75.3457 47.1168C75.1855 47.0688 75.0607 47.0365 74.9716 47.0203L74.9644 47.0597ZM75.3343 47.1552C75.4933 47.2029 75.6483 47.2625 75.7994 47.3341L75.8166 47.2979C75.6637 47.2255 75.5067 47.1651 75.3457 47.1168L75.3343 47.1552ZM75.7996 47.3342L79.2796 48.9422L79.2964 48.9058L75.8164 47.2978L75.7996 47.3342ZM79.268 48.924V50.328H79.308V48.924H79.268ZM82.5353 50.808L82.5261 50.8258L82.5264 50.8259L82.5353 50.808ZM81.5633 49.908L81.5459 49.9179L81.5462 49.9183L81.5633 49.908ZM81.5633 43.344L81.5461 43.3338L81.546 43.3339L81.5633 43.344ZM82.5353 42.444L82.5443 42.4619L82.5445 42.4617L82.5353 42.444ZM85.4753 42.444L85.4661 42.4618L85.4664 42.4619L85.4753 42.444ZM86.4473 43.344L86.4301 43.3542L86.4302 43.3543L86.4473 43.344ZM86.7953 44.712V44.732H86.8153V44.712H86.7953ZM85.2833 44.712H85.2633V44.732H85.2833V44.712ZM84.9473 43.776L84.9329 43.7899L84.9334 43.7904L84.9473 43.776ZM83.0633 43.776L83.0772 43.7904L83.0775 43.7901L83.0633 43.776ZM83.0633 49.476L83.0492 49.4901L83.0494 49.4904L83.0633 49.476ZM84.9473 49.476L84.9332 49.4619L84.9332 49.4619L84.9473 49.476ZM85.2833 48.528V48.508H85.2633V48.528H85.2833ZM86.7953 48.528H86.8153V48.508H86.7953V48.528ZM86.4473 49.908L86.4644 49.9183L86.4645 49.9182L86.4473 49.908ZM85.4753 50.808L85.4843 50.8259L85.4845 50.8257L85.4753 50.808ZM84.0113 51.1C83.4457 51.1 82.9569 50.9964 82.5443 50.7901L82.5264 50.8259C82.9457 51.0356 83.4409 51.14 84.0113 51.14V51.1ZM82.5445 50.7903C82.1316 50.5759 81.8104 50.2784 81.5804 49.8977L81.5462 49.9183C81.7802 50.3056 82.107 50.6081 82.5261 50.8257L82.5445 50.7903ZM81.5807 49.8981C81.3587 49.5096 81.2473 49.0531 81.2473 48.528H81.2073C81.2073 49.0589 81.3199 49.5224 81.5459 49.9179L81.5807 49.8981ZM81.2473 48.528V44.712H81.2073V48.528H81.2473ZM81.2473 44.712C81.2473 44.1869 81.3587 43.7345 81.5806 43.3541L81.546 43.3339C81.3199 43.7215 81.2073 44.1811 81.2073 44.712H81.2473ZM81.5805 43.3542C81.8105 42.9656 82.1316 42.6682 82.5443 42.4619L82.5264 42.4261C82.107 42.6358 81.7801 42.9384 81.5461 43.3338L81.5805 43.3542ZM82.5445 42.4617C82.9571 42.2475 83.4458 42.14 84.0113 42.14V42.1C83.4408 42.1 82.9455 42.2085 82.5261 42.4262L82.5445 42.4617ZM84.0113 42.14C84.5687 42.14 85.0534 42.2475 85.4661 42.4617L85.4845 42.4262C85.0652 42.2085 84.5739 42.1 84.0113 42.1V42.14ZM85.4664 42.4619C85.879 42.6682 86.2001 42.9656 86.4301 43.3542L86.4645 43.3338C86.2305 42.9384 85.9036 42.6358 85.4843 42.4261L85.4664 42.4619ZM86.4302 43.3543C86.66 43.7347 86.7753 44.187 86.7753 44.712H86.8153C86.8153 44.181 86.6986 43.7213 86.4644 43.3337L86.4302 43.3543ZM86.7953 44.692H85.2833V44.732H86.7953V44.692ZM85.3033 44.712C85.3033 44.3003 85.1902 43.9824 84.9612 43.7616L84.9334 43.7904C85.1524 44.0016 85.2633 44.3077 85.2633 44.712H85.3033ZM84.9617 43.7621C84.7409 43.5331 84.423 43.42 84.0113 43.42V43.46C84.4156 43.46 84.7218 43.5709 84.9329 43.7899L84.9617 43.7621ZM84.0113 43.42C83.5996 43.42 83.2779 43.5331 83.0492 43.7619L83.0775 43.7901C83.2967 43.5709 83.607 43.46 84.0113 43.46V43.42ZM83.0494 43.7616C82.8204 43.9824 82.7073 44.3003 82.7073 44.712H82.7473C82.7473 44.3077 82.8582 44.0016 83.0772 43.7904L83.0494 43.7616ZM82.7073 44.712V48.528H82.7473V44.712H82.7073ZM82.7073 48.528C82.7073 48.9397 82.8204 49.2614 83.0492 49.4901L83.0775 49.4619C82.8582 49.2426 82.7473 48.9323 82.7473 48.528H82.7073ZM83.0494 49.4904C83.2782 49.711 83.5998 49.82 84.0113 49.82V49.78C83.6068 49.78 83.2964 49.673 83.0772 49.4616L83.0494 49.4904ZM84.0113 49.82C84.4228 49.82 84.7406 49.711 84.9615 49.4901L84.9332 49.4619C84.722 49.673 84.4158 49.78 84.0113 49.78V49.82ZM84.9615 49.4901C85.1902 49.2614 85.3033 48.9397 85.3033 48.528H85.2633C85.2633 48.9323 85.1524 49.2426 84.9332 49.4619L84.9615 49.4901ZM85.2833 48.548H86.7953V48.508H85.2833V48.548ZM86.7753 48.528C86.7753 49.053 86.66 49.5094 86.4301 49.8978L86.4645 49.9182C86.6986 49.5226 86.8153 49.059 86.8153 48.528H86.7753ZM86.4302 49.8977C86.2002 50.2784 85.879 50.5759 85.4661 50.7903L85.4845 50.8257C85.9036 50.6081 86.2304 50.3056 86.4644 49.9183L86.4302 49.8977ZM85.4664 50.7901C85.0537 50.9965 84.5688 51.1 84.0113 51.1V51.14C84.5738 51.14 85.065 51.0355 85.4843 50.8259L85.4664 50.7901ZM88.9026 50.556L88.8885 50.5701L88.8888 50.5704L88.9026 50.556ZM88.9866 47.532L88.9996 47.5472L88.9998 47.5471L88.9866 47.532ZM92.4066 46.956V46.976H92.4266V46.956H92.4066ZM90.4026 45.696L90.3917 45.6793L90.3917 45.6793L90.4026 45.696ZM90.0546 46.272V46.292H90.0728L90.0745 46.2739L90.0546 46.272ZM88.6146 46.272L88.5947 46.2709L88.5935 46.292H88.6146V46.272ZM89.3586 44.832L89.3463 44.8162L89.3462 44.8163L89.3586 44.832ZM93.2106 44.868L93.2235 44.8527L93.2235 44.8527L93.2106 44.868ZM93.9066 51V51.02H93.9266V51H93.9066ZM92.4426 51H92.4226V51.02H92.4426V51ZM92.4426 49.764H92.4626L92.4228 49.7614L92.4426 49.764ZM91.8426 50.76L91.8312 50.7436L91.8312 50.7436L91.8426 50.76ZM92.0226 49.572L92.0355 49.5873L92.0355 49.5873L92.0226 49.572ZM92.4066 47.928H92.4266V47.908H92.4066V47.928ZM90.1026 49.632L90.0891 49.6467L90.0897 49.6473L90.1026 49.632ZM90.4986 51.1C89.8305 51.1 89.3039 50.9132 88.9165 50.5416L88.8888 50.5704C89.2853 50.9508 89.8228 51.14 90.4986 51.14V51.1ZM88.9168 50.5419C88.537 50.1621 88.3466 49.6675 88.3466 49.056H88.3066C88.3066 49.6765 88.5002 50.1819 88.8885 50.5701L88.9168 50.5419ZM88.3466 49.056C88.3466 48.4212 88.5646 47.919 88.9996 47.5472L88.9736 47.5168C88.5287 47.897 88.3066 48.4108 88.3066 49.056H88.3466ZM88.9998 47.5471C89.4351 47.1671 90.0339 46.976 90.7986 46.976V46.936C90.0273 46.936 89.4181 47.1289 88.9735 47.5169L88.9998 47.5471ZM90.7986 46.976H92.4066V46.936H90.7986V46.976ZM92.4266 46.956V46.488H92.3866V46.956H92.4266ZM92.4266 46.488C92.4266 46.152 92.3283 45.8967 92.1286 45.7258C91.9295 45.5554 91.633 45.472 91.2426 45.472V45.512C91.6282 45.512 91.9137 45.5946 92.1026 45.7562C92.2909 45.9173 92.3866 46.16 92.3866 46.488H92.4266ZM91.2426 45.472C90.8883 45.472 90.604 45.5404 90.3917 45.6793L90.4136 45.7127C90.6172 45.5796 90.893 45.512 91.2426 45.512V45.472ZM90.3917 45.6793C90.1786 45.8186 90.0593 46.016 90.0347 46.2701L90.0745 46.2739C90.0979 46.0319 90.2107 45.8454 90.4136 45.7127L90.3917 45.6793ZM90.0546 46.252H88.6146V46.292H90.0546V46.252ZM88.6346 46.2731C88.6663 45.6868 88.9115 45.2121 89.3711 44.8477L89.3462 44.8163C88.8777 45.1879 88.627 45.6732 88.5947 46.2709L88.6346 46.2731ZM89.3709 44.8478C89.8384 44.4833 90.4656 44.3 91.2546 44.3V44.26C90.4596 44.26 89.8228 44.4447 89.3463 44.8162L89.3709 44.8478ZM91.2546 44.3C92.0917 44.3 92.7385 44.4953 93.1977 44.8833L93.2235 44.8527C92.7548 44.4567 92.0975 44.26 91.2546 44.26V44.3ZM93.1977 44.8833C93.6564 45.2708 93.8866 45.8168 93.8866 46.524H93.9266C93.9266 45.8072 93.6928 45.2492 93.2235 44.8527L93.1977 44.8833ZM93.8866 46.524V51H93.9266V46.524H93.8866ZM93.9066 50.98H92.4426V51.02H93.9066V50.98ZM92.4626 51V49.764H92.4226V51H92.4626ZM92.4228 49.7614C92.3675 50.1799 92.1705 50.5069 91.8312 50.7436L91.8541 50.7764C92.2028 50.5331 92.4057 50.1961 92.4625 49.7666L92.4228 49.7614ZM91.8312 50.7436C91.4915 50.9806 91.0478 51.1 90.4986 51.1V51.14C91.0534 51.14 91.5058 51.0194 91.8541 50.7764L91.8312 50.7436ZM90.9786 49.916C91.4218 49.916 91.7749 49.8072 92.0355 49.5873L92.0097 49.5567C91.7583 49.7688 91.4154 49.876 90.9786 49.876V49.916ZM92.0355 49.5873C92.2964 49.3672 92.4266 49.0734 92.4266 48.708H92.3866C92.3866 49.0626 92.2609 49.3448 92.0097 49.5567L92.0355 49.5873ZM92.4266 48.708V47.928H92.3866V48.708H92.4266ZM92.4066 47.908H90.8706V47.948H92.4066V47.908ZM90.8706 47.908C90.5387 47.908 90.2733 48.0012 90.0768 48.1896L90.1045 48.2184C90.2919 48.0388 90.5465 47.948 90.8706 47.948V47.908ZM90.0768 48.1896C89.8805 48.3777 89.7826 48.6191 89.7826 48.912H89.8226C89.8226 48.6289 89.9167 48.3983 90.1045 48.2184L90.0768 48.1896ZM89.7826 48.912C89.7826 49.213 89.8846 49.4586 90.0891 49.6467L90.1162 49.6173C89.9207 49.4374 89.8226 49.203 89.8226 48.912H89.7826ZM90.0897 49.6473C90.3025 49.8273 90.5997 49.916 90.9786 49.916V49.876C90.6056 49.876 90.3188 49.7887 90.1155 49.6167L90.0897 49.6473ZM95.8699 51H95.8499V51.02H95.8699V51ZM95.8699 44.4V44.38H95.8499V44.4H95.8699ZM97.3339 44.4H97.3539V44.38H97.3339V44.4ZM97.3339 45.636H97.3139L97.3536 45.6398L97.3339 45.636ZM97.9219 44.652L97.9341 44.6679L97.9344 44.6677L97.9219 44.652ZM100.658 44.928L100.643 44.9413L100.643 44.9414L100.658 44.928ZM101.246 51V51.02H101.266V51H101.246ZM99.7459 51H99.7259V51.02H99.7459V51ZM99.4219 45.912L99.4073 45.9256L99.4078 45.9261L99.4219 45.912ZM97.6819 45.912L97.6675 45.8981L97.6673 45.8984L97.6819 45.912ZM97.3699 51V51.02H97.3899V51H97.3699ZM95.8899 51V44.4H95.8499V51H95.8899ZM95.8699 44.42H97.3339V44.38H95.8699V44.42ZM97.3139 44.4V45.636H97.3539V44.4H97.3139ZM97.3536 45.6398C97.4327 45.2282 97.6263 44.9046 97.9341 44.6679L97.9097 44.6361C97.5936 44.8794 97.3951 45.2118 97.3143 45.6322L97.3536 45.6398ZM97.9344 44.6677C98.2422 44.423 98.6335 44.3 99.1099 44.3V44.26C98.6264 44.26 98.2257 44.385 97.9095 44.6363L97.9344 44.6677ZM99.1099 44.3C99.753 44.3 100.263 44.5141 100.643 44.9413L100.673 44.9147C100.285 44.4779 99.7629 44.26 99.1099 44.26V44.3ZM100.643 44.9414C101.031 45.3689 101.226 45.9437 101.226 46.668H101.266C101.266 45.9363 101.069 45.3511 100.673 44.9146L100.643 44.9414ZM101.226 46.668V51H101.266V46.668H101.226ZM101.246 50.98H99.7459V51.02H101.246V50.98ZM99.7659 51V46.848H99.7259V51H99.7659ZM99.7659 46.848C99.7659 46.4365 99.657 46.1187 99.4361 45.8979L99.4078 45.9261C99.6189 46.1373 99.7259 46.4435 99.7259 46.848H99.7659ZM99.4366 45.8984C99.2241 45.6696 98.9344 45.556 98.5699 45.556V45.596C98.9255 45.596 99.2037 45.7064 99.4073 45.9256L99.4366 45.8984ZM98.5699 45.556C98.1897 45.556 97.8881 45.6694 97.6675 45.8981L97.6963 45.9259C97.9078 45.7066 98.1982 45.596 98.5699 45.596V45.556ZM97.6673 45.8984C97.4548 46.1273 97.3499 46.4528 97.3499 46.872H97.3899C97.3899 46.4592 97.4931 46.1447 97.6966 45.9256L97.6673 45.8984ZM97.3499 46.872V51H97.3899V46.872H97.3499ZM97.3699 50.98H95.8699V51.02H97.3699V50.98ZM104.913 51L104.894 51.0064L104.899 51.02H104.913V51ZM102.693 44.4V44.38H102.665L102.674 44.4064L102.693 44.4ZM104.265 44.4L104.284 44.3939L104.28 44.38H104.265V44.4ZM105.537 48.408L105.518 48.4141L105.518 48.4143L105.537 48.408ZM105.741 49.14L105.722 49.1444L105.722 49.1452L105.741 49.14ZM105.873 49.764L105.853 49.7667L105.893 49.7676L105.873 49.764ZM105.993 49.14L105.974 49.1356L105.974 49.1361L105.993 49.14ZM106.185 48.42L106.166 48.414L106.166 48.4141L106.185 48.42ZM107.445 44.4V44.38H107.431L107.426 44.394L107.445 44.4ZM109.029 44.4L109.048 44.4063L109.057 44.38H109.029V44.4ZM106.821 51V51.02H106.836L106.84 51.0063L106.821 51ZM104.932 50.9936L102.712 44.3936L102.674 44.4064L104.894 51.0064L104.932 50.9936ZM102.693 44.42H104.265V44.38H102.693V44.42ZM104.246 44.406L105.518 48.414L105.556 48.4019L104.284 44.3939L104.246 44.406ZM105.518 48.4143C105.598 48.6537 105.666 48.8971 105.722 49.1444L105.761 49.1356C105.705 48.8869 105.636 48.6423 105.556 48.4017L105.518 48.4143ZM105.722 49.1452C105.786 49.3846 105.83 49.5918 105.853 49.7667L105.893 49.7613C105.869 49.5842 105.825 49.3754 105.761 49.1348L105.722 49.1452ZM105.893 49.7676C105.925 49.5917 105.965 49.3838 106.013 49.1439L105.974 49.1361C105.926 49.3762 105.886 49.5843 105.854 49.7604L105.893 49.7676ZM106.013 49.1444C106.069 48.8969 106.133 48.6574 106.204 48.4259L106.166 48.4141C106.094 48.6466 106.03 48.8871 105.974 49.1356L106.013 49.1444ZM106.204 48.426L107.464 44.406L107.426 44.394L106.166 48.414L106.204 48.426ZM107.445 44.42H109.029V44.38H107.445V44.42ZM109.01 44.3937L106.802 50.9937L106.84 51.0063L109.048 44.4063L109.01 44.3937ZM106.821 50.98H104.913V51.02H106.821V50.98ZM110.849 50.556L110.834 50.5701L110.835 50.5704L110.849 50.556ZM110.933 47.532L110.946 47.5472L110.946 47.5471L110.933 47.532ZM114.353 46.956V46.976H114.373V46.956H114.353ZM112.349 45.696L112.338 45.6793L112.338 45.6793L112.349 45.696ZM112.001 46.272V46.292H112.019L112.02 46.2739L112.001 46.272ZM110.561 46.272L110.541 46.2709L110.539 46.292H110.561V46.272ZM111.305 44.832L111.292 44.8162L111.292 44.8163L111.305 44.832ZM115.157 44.868L115.169 44.8527L115.169 44.8527L115.157 44.868ZM115.853 51V51.02H115.873V51H115.853ZM114.389 51H114.369V51.02H114.389V51ZM114.389 49.764H114.409L114.369 49.7614L114.389 49.764ZM113.789 50.76L113.777 50.7436L113.777 50.7436L113.789 50.76ZM113.969 49.572L113.981 49.5873L113.981 49.5873L113.969 49.572ZM114.353 47.928H114.373V47.908H114.353V47.928ZM112.049 49.632L112.035 49.6467L112.036 49.6473L112.049 49.632ZM112.445 51.1C111.776 51.1 111.25 50.9132 110.862 50.5416L110.835 50.5704C111.231 50.9508 111.769 51.14 112.445 51.14V51.1ZM110.863 50.5419C110.483 50.1621 110.293 49.6675 110.293 49.056H110.253C110.253 49.6765 110.446 50.1819 110.834 50.5701L110.863 50.5419ZM110.293 49.056C110.293 48.4212 110.511 47.919 110.946 47.5472L110.92 47.5168C110.475 47.897 110.253 48.4108 110.253 49.056H110.293ZM110.946 47.5471C111.381 47.1671 111.98 46.976 112.745 46.976V46.936C111.973 46.936 111.364 47.1289 110.919 47.5169L110.946 47.5471ZM112.745 46.976H114.353V46.936H112.745V46.976ZM114.373 46.956V46.488H114.333V46.956H114.373ZM114.373 46.488C114.373 46.152 114.274 45.8967 114.075 45.7258C113.875 45.5554 113.579 45.472 113.189 45.472V45.512C113.574 45.512 113.86 45.5946 114.049 45.7562C114.237 45.9173 114.333 46.16 114.333 46.488H114.373ZM113.189 45.472C112.834 45.472 112.55 45.5404 112.338 45.6793L112.36 45.7127C112.563 45.5796 112.839 45.512 113.189 45.512V45.472ZM112.338 45.6793C112.125 45.8186 112.005 46.016 111.981 46.2701L112.02 46.2739C112.044 46.0319 112.157 45.8454 112.36 45.7127L112.338 45.6793ZM112.001 46.252H110.561V46.292H112.001V46.252ZM110.581 46.2731C110.612 45.6868 110.857 45.2121 111.317 44.8477L111.292 44.8163C110.824 45.1879 110.573 45.6732 110.541 46.2709L110.581 46.2731ZM111.317 44.8478C111.784 44.4833 112.412 44.3 113.201 44.3V44.26C112.406 44.26 111.769 44.4447 111.292 44.8162L111.317 44.8478ZM113.201 44.3C114.038 44.3 114.684 44.4953 115.144 44.8833L115.169 44.8527C114.701 44.4567 114.043 44.26 113.201 44.26V44.3ZM115.144 44.8833C115.602 45.2708 115.833 45.8168 115.833 46.524H115.873C115.873 45.8072 115.639 45.2492 115.169 44.8527L115.144 44.8833ZM115.833 46.524V51H115.873V46.524H115.833ZM115.853 50.98H114.389V51.02H115.853V50.98ZM114.409 51V49.764H114.369V51H114.409ZM114.369 49.7614C114.313 50.1799 114.116 50.5069 113.777 50.7436L113.8 50.7764C114.149 50.5331 114.352 50.1961 114.408 49.7666L114.369 49.7614ZM113.777 50.7436C113.437 50.9806 112.994 51.1 112.445 51.1V51.14C112.999 51.14 113.452 51.0194 113.8 50.7764L113.777 50.7436ZM112.925 49.916C113.368 49.916 113.721 49.8072 113.981 49.5873L113.956 49.5567C113.704 49.7688 113.361 49.876 112.925 49.876V49.916ZM113.981 49.5873C114.242 49.3672 114.373 49.0734 114.373 48.708H114.333C114.333 49.0626 114.207 49.3448 113.956 49.5567L113.981 49.5873ZM114.373 48.708V47.928H114.333V48.708H114.373ZM114.353 47.908H112.817V47.948H114.353V47.908ZM112.817 47.908C112.485 47.908 112.219 48.0012 112.023 48.1896L112.05 48.2184C112.238 48.0388 112.492 47.948 112.817 47.948V47.908ZM112.023 48.1896C111.826 48.3777 111.729 48.6191 111.729 48.912H111.769C111.769 48.6289 111.863 48.3983 112.05 48.2184L112.023 48.1896ZM111.729 48.912C111.729 49.213 111.831 49.4586 112.035 49.6467L112.062 49.6173C111.867 49.4374 111.769 49.203 111.769 48.912H111.729ZM112.036 49.6473C112.248 49.8273 112.546 49.916 112.925 49.916V49.876C112.552 49.876 112.265 49.7887 112.061 49.6167L112.036 49.6473ZM118.356 50.58L118.343 50.5957L118.344 50.5958L118.356 50.58ZM117.672 49.128V49.108H117.652V49.128H117.672ZM119.148 49.128H119.168V49.108H119.148V49.128ZM119.424 49.716L119.412 49.7321L119.412 49.7323L119.424 49.716ZM121.572 49.716L121.561 49.6995L121.56 49.6997L121.572 49.716ZM121.668 48.6L121.655 48.615L121.655 48.6154L121.668 48.6ZM121.044 48.36L121.047 48.3402L121.046 48.3402L121.044 48.36ZM119.4 48.144L119.397 48.1638L119.397 48.1638L119.4 48.144ZM118.176 47.532L118.161 47.5448L118.161 47.545L118.176 47.532ZM118.38 44.796L118.392 44.8117L118.392 44.8116L118.38 44.796ZM122.508 44.796L122.496 44.812L122.496 44.812L122.508 44.796ZM123.204 46.14V46.16H123.224L123.224 46.1394L123.204 46.14ZM121.716 46.14L121.696 46.1408L121.697 46.16H121.716V46.14ZM121.44 45.648L121.428 45.6642L121.429 45.6645L121.44 45.648ZM119.448 45.66L119.46 45.6759L119.46 45.6755L119.448 45.66ZM119.376 46.632L119.363 46.6476L119.364 46.648L119.376 46.632ZM119.928 46.812L119.931 46.7922L119.93 46.7921L119.928 46.812ZM121.476 47.028L121.473 47.0478L121.474 47.0479L121.476 47.028ZM122.844 47.676L122.829 47.6889L122.829 47.6893L122.844 47.676ZM122.652 50.592L122.664 50.6076L122.664 50.6076L122.652 50.592ZM120.216 51.088C119.435 51.088 118.82 50.9126 118.368 50.5642L118.344 50.5958C118.804 50.9514 119.429 51.128 120.216 51.128V51.088ZM118.368 50.5643C117.917 50.2083 117.692 49.7302 117.692 49.128H117.652C117.652 49.7418 117.882 50.2317 118.343 50.5957L118.368 50.5643ZM117.672 49.148H119.148V49.108H117.672V49.148ZM119.128 49.128C119.128 49.3895 119.222 49.5918 119.412 49.7321L119.436 49.6999C119.258 49.5682 119.168 49.3785 119.168 49.128H119.128ZM119.412 49.7323C119.609 49.8715 119.877 49.94 120.216 49.94V49.9C119.882 49.9 119.623 49.8325 119.435 49.6997L119.412 49.7323ZM120.216 49.94H120.744V49.9H120.216V49.94ZM120.744 49.94C121.106 49.94 121.387 49.8717 121.583 49.7323L121.56 49.6997C121.373 49.8323 121.102 49.9 120.744 49.9V49.94ZM121.583 49.7325C121.789 49.5926 121.892 49.3902 121.892 49.128H121.852C121.852 49.3778 121.755 49.5674 121.561 49.6995L121.583 49.7325ZM121.892 49.128C121.892 48.8843 121.823 48.7016 121.681 48.5846L121.655 48.6154C121.785 48.7224 121.852 48.8917 121.852 49.128H121.892ZM121.681 48.585C121.541 48.4614 121.329 48.3805 121.047 48.3402L121.041 48.3798C121.319 48.4195 121.523 48.4986 121.655 48.615L121.681 48.585ZM121.046 48.3402L119.402 48.1242L119.397 48.1638L121.041 48.3798L121.046 48.3402ZM119.403 48.1242C118.878 48.0527 118.475 47.8505 118.191 47.519L118.161 47.545C118.453 47.8855 118.865 48.0913 119.397 48.1638L119.403 48.1242ZM118.191 47.5192C117.915 47.1875 117.776 46.7564 117.776 46.224H117.736C117.736 46.7636 117.877 47.2045 118.161 47.5448L118.191 47.5192ZM117.776 46.224C117.776 45.6049 117.982 45.1352 118.392 44.8117L118.367 44.7803C117.946 45.1128 117.736 45.5951 117.736 46.224H117.776ZM118.392 44.8116C118.804 44.4795 119.398 44.312 120.18 44.312V44.272C119.393 44.272 118.788 44.4405 118.367 44.7804L118.392 44.8116ZM120.18 44.312H120.732V44.272H120.18V44.312ZM120.732 44.312C121.465 44.312 122.052 44.4793 122.496 44.812L122.52 44.78C122.067 44.4407 121.471 44.272 120.732 44.272V44.312ZM122.496 44.812C122.939 45.1443 123.168 45.5867 123.184 46.1406L123.224 46.1394C123.208 45.5733 122.973 45.1197 122.52 44.78L122.496 44.812ZM123.204 46.12H121.716V46.16H123.204V46.12ZM121.736 46.1392C121.728 45.9247 121.632 45.7549 121.451 45.6315L121.429 45.6645C121.6 45.7811 121.688 45.9393 121.696 46.1408L121.736 46.1392ZM121.452 45.6318C121.271 45.5006 121.031 45.436 120.732 45.436V45.476C121.025 45.476 121.257 45.5394 121.428 45.6642L121.452 45.6318ZM120.732 45.436H120.18V45.476H120.732V45.436ZM120.18 45.436C119.857 45.436 119.608 45.5045 119.435 45.6445L119.46 45.6755C119.624 45.5435 119.862 45.476 120.18 45.476V45.436ZM119.436 45.6441C119.262 45.7761 119.176 45.9582 119.176 46.188H119.216C119.216 45.9698 119.297 45.7999 119.46 45.6759L119.436 45.6441ZM119.176 46.188C119.176 46.3921 119.237 46.5467 119.363 46.6476L119.388 46.6164C119.274 46.5253 119.216 46.3839 119.216 46.188H119.176ZM119.364 46.648C119.496 46.747 119.684 46.8077 119.926 46.8319L119.93 46.7921C119.692 46.7683 119.512 46.709 119.388 46.616L119.364 46.648ZM119.925 46.8318L121.473 47.0478L121.479 47.0082L119.931 46.7922L119.925 46.8318ZM121.474 47.0479C122.078 47.1194 122.529 47.3338 122.829 47.6889L122.859 47.6631C122.551 47.2982 122.09 47.0806 121.478 47.0081L121.474 47.0479ZM122.829 47.6893C123.137 48.0367 123.292 48.5075 123.292 49.104H123.332C123.332 48.5005 123.175 48.0193 122.859 47.6627L122.829 47.6893ZM123.292 49.104C123.292 49.7389 123.074 50.2287 122.639 50.5764L122.664 50.6076C123.11 50.2513 123.332 49.7491 123.332 49.104H123.292ZM122.639 50.5764C122.212 50.9164 121.582 51.088 120.744 51.088V51.128C121.586 51.128 122.227 50.9556 122.664 50.6076L122.639 50.5764ZM120.744 51.088H120.216V51.128H120.744V51.088ZM132.242 52.32L132.224 52.313L132.214 52.34H132.242V52.32ZM136.442 41.04V41.02H136.429L136.424 41.033L136.442 41.04ZM138.002 41.04L138.021 41.047L138.031 41.02H138.002V41.04ZM133.802 52.32V52.34H133.816L133.821 52.327L133.802 52.32ZM132.261 52.327L136.461 41.047L136.424 41.033L132.224 52.313L132.261 52.327ZM136.442 41.06H138.002V41.02H136.442V41.06ZM137.984 41.033L133.784 52.313L133.821 52.327L138.021 41.047L137.984 41.033ZM133.802 52.3H132.242V52.34H133.802V52.3ZM139.75 50.328H139.73V50.3595L139.758 50.3461L139.75 50.328ZM139.75 48.948L139.741 48.9298L139.73 48.9352V48.948H139.75ZM143.23 47.34L143.222 47.3218L143.221 47.3218L143.23 47.34ZM143.698 47.16L143.692 47.1408L143.692 47.1409L143.698 47.16ZM144.07 47.052L144.075 47.0713L144.073 47.0323L144.07 47.052ZM143.698 46.956L143.692 46.9752L143.692 46.9752L143.698 46.956ZM143.23 46.788L143.221 46.8061L143.222 46.8064L143.23 46.788ZM139.75 45.168H139.73V45.1808L139.741 45.1861L139.75 45.168ZM139.75 43.764L139.758 43.7459L139.73 43.7325V43.764H139.75ZM145.126 46.296H145.146V46.2833L145.134 46.2779L145.126 46.296ZM145.126 47.796L145.134 47.8141L145.146 47.8087V47.796H145.126ZM139.77 50.328V48.948H139.73V50.328H139.77ZM139.758 48.9662L143.238 47.3582L143.221 47.3218L139.741 48.9298L139.758 48.9662ZM143.238 47.3582C143.397 47.2865 143.553 47.2268 143.704 47.1791L143.692 47.1409C143.539 47.1892 143.382 47.2495 143.222 47.3218L143.238 47.3582ZM143.704 47.1792C143.864 47.1312 143.987 47.0952 144.075 47.0713L144.065 47.0327C143.976 47.0568 143.852 47.0928 143.692 47.1408L143.704 47.1792ZM144.073 47.0323C143.987 47.0165 143.863 46.9848 143.704 46.9368L143.692 46.9752C143.852 47.0232 143.977 47.0555 144.066 47.0717L144.073 47.0323ZM143.704 46.9368C143.544 46.889 143.389 46.8333 143.238 46.7696L143.222 46.8064C143.375 46.8707 143.531 46.927 143.692 46.9752L143.704 46.9368ZM143.238 46.7699L139.758 45.1499L139.741 45.1861L143.221 46.8061L143.238 46.7699ZM139.77 45.168V43.764H139.73V45.168H139.77ZM139.741 43.7821L145.117 46.3141L145.134 46.2779L139.758 43.7459L139.741 43.7821ZM145.106 46.296V47.796H145.146V46.296H145.106ZM145.117 47.7779L139.741 50.3099L139.758 50.3461L145.134 47.8141L145.117 47.7779Z" fill="white" mask="url(#path-33-outside-1_50_7472)"/>
<g filter="url(#filter9_f_50_7472)">
<rect x="181.5" y="265.5" width="163" height="73" rx="7.5" stroke="#6EE7B7" stroke-dasharray="2 2"/>
</g>
<g filter="url(#filter10_d_50_7472)">
<rect x="85" y="215" width="44" height="44" rx="4" fill="#FDE68A"/>
</g>
<rect opacity="0.2" x="95" y="229" width="24" height="4" rx="1" fill="#92400E"/>
<rect opacity="0.2" x="99" y="235" width="17" height="4" rx="1" fill="#92400E"/>
<rect opacity="0.2" x="92" y="241" width="30" height="4" rx="1" fill="#92400E"/>
<g filter="url(#filter11_d_50_7472)">
<path d="M407 156C407 147.163 414.163 140 423 140C431.837 140 439 147.163 439 156C439 164.837 431.837 172 423 172H409C407.895 172 407 171.105 407 170V156Z" fill="url(#paint7_radial_50_7472)"/>
</g>
<circle opacity="0.4" cx="423" cy="156" r="12.4444" fill="#4C0519"/>
</g>
<rect x="24.5" y="0.5" width="462" height="366" rx="7.5" stroke="#414147"/>
<mask id="path-42-outside-2_50_7472" maskUnits="userSpaceOnUse" x="1" y="14" width="24" height="336" fill="black">
<rect fill="white" x="1" y="14" width="24" height="336"/>
<path d="M24 14C11.2975 14 1 24.2975 1 37V327C1 339.703 11.2975 350 24 350V14Z"/>
</mask>
<path d="M24 14C11.2975 14 1 24.2975 1 37V327C1 339.703 11.2975 350 24 350V14Z" fill="#242429"/>
<path d="M24 14C11.2975 14 1 24.2975 1 37V327C1 339.703 11.2975 350 24 350V14Z" fill="url(#paint8_radial_50_7472)"/>
<path d="M24 14H1H24ZM1 350H24H1ZM25 350V14H24C23.6666 14 23.3331 14.0073 23 14.0217L23 37V349.979C23.3332 349.993 23.6666 350 24 350H25ZM1 14V350V14Z" fill="#414147" mask="url(#path-42-outside-2_50_7472)"/>
<defs>
<filter id="filter0_bdi_50_7472" x="180" y="58" width="183" height="86" filterUnits="userSpaceOnUse" color-interpolation-filters="sRGB">
<feFlood flood-opacity="0" result="BackgroundImageFix"/>
<feGaussianBlur in="BackgroundImageFix" stdDeviation="2"/>
<feComposite in2="SourceAlpha" operator="in" result="effect1_backgroundBlur_50_7472"/>
<feColorMatrix in="SourceAlpha" type="matrix" values="0 0 0 0 0 0 0 0 0 0 0 0 0 0 0 0 0 0 127 0" result="hardAlpha"/>
<feMorphology radius="6" operator="erode" in="SourceAlpha" result="effect2_dropShadow_50_7472"/>
<feOffset dy="2"/>
<feGaussianBlur stdDeviation="8"/>
<feComposite in2="hardAlpha" operator="out"/>
<feColorMatrix type="matrix" values="0 0 0 0 0.0666667 0 0 0 0 0.0666667 0 0 0 0 0.0784314 0 0 0 1 0"/>
<feBlend mode="normal" in2="effect1_backgroundBlur_50_7472" result="effect2_dropShadow_50_7472"/>
<feBlend mode="normal" in="SourceGraphic" in2="effect2_dropShadow_50_7472" result="shape"/>
<feColorMatrix in="SourceAlpha" type="matrix" values="0 0 0 0 0 0 0 0 0 0 0 0 0 0 0 0 0 0 127 0" result="hardAlpha"/>
<feOffset/>
<feGaussianBlur stdDeviation="6"/>
<feComposite in2="hardAlpha" operator="arithmetic" k2="-1" k3="1"/>
<feColorMatrix type="matrix" values="0 0 0 0 0.4464 0 0 0 0 0.4464 0 0 0 0 0.48 0 0 0 0.12 0"/>
<feBlend mode="normal" in2="shape" result="effect3_innerShadow_50_7472"/>
</filter>
<filter id="filter1_bdi_50_7472" x="87" y="148" width="183" height="94" filterUnits="userSpaceOnUse" color-interpolation-filters="sRGB">
<feFlood flood-opacity="0" result="BackgroundImageFix"/>
<feGaussianBlur in="BackgroundImageFix" stdDeviation="2"/>
<feComposite in2="SourceAlpha" operator="in" result="effect1_backgroundBlur_50_7472"/>
<feColorMatrix in="SourceAlpha" type="matrix" values="0 0 0 0 0 0 0 0 0 0 0 0 0 0 0 0 0 0 127 0" result="hardAlpha"/>
<feMorphology radius="6" operator="erode" in="SourceAlpha" result="effect2_dropShadow_50_7472"/>
<feOffset dy="2"/>
<feGaussianBlur stdDeviation="8"/>
<feComposite in2="hardAlpha" operator="out"/>
<feColorMatrix type="matrix" values="0 0 0 0 0.0666667 0 0 0 0 0.0666667 0 0 0 0 0.0784314 0 0 0 1 0"/>
<feBlend mode="normal" in2="effect1_backgroundBlur_50_7472" result="effect2_dropShadow_50_7472"/>
<feBlend mode="normal" in="SourceGraphic" in2="effect2_dropShadow_50_7472" result="shape"/>
<feColorMatrix in="SourceAlpha" type="matrix" values="0 0 0 0 0 0 0 0 0 0 0 0 0 0 0 0 0 0 127 0" result="hardAlpha"/>
<feOffset/>
<feGaussianBlur stdDeviation="6"/>
<feComposite in2="hardAlpha" operator="arithmetic" k2="-1" k3="1"/>
<feColorMatrix type="matrix" values="0 0 0 0 0.4464 0 0 0 0 0.4464 0 0 0 0 0.48 0 0 0 0.12 0"/>
<feBlend mode="normal" in2="shape" result="effect3_innerShadow_50_7472"/>
</filter>
<filter id="filter2_bdi_50_7472" x="274" y="148" width="183" height="94" filterUnits="userSpaceOnUse" color-interpolation-filters="sRGB">
<feFlood flood-opacity="0" result="BackgroundImageFix"/>
<feGaussianBlur in="BackgroundImageFix" stdDeviation="2"/>
<feComposite in2="SourceAlpha" operator="in" result="effect1_backgroundBlur_50_7472"/>
<feColorMatrix in="SourceAlpha" type="matrix" values="0 0 0 0 0 0 0 0 0 0 0 0 0 0 0 0 0 0 127 0" result="hardAlpha"/>
<feMorphology radius="6" operator="erode" in="SourceAlpha" result="effect2_dropShadow_50_7472"/>
<feOffset dy="2"/>
<feGaussianBlur stdDeviation="8"/>
<feComposite in2="hardAlpha" operator="out"/>
<feColorMatrix type="matrix" values="0 0 0 0 0.0666667 0 0 0 0 0.0666667 0 0 0 0 0.0784314 0 0 0 1 0"/>
<feBlend mode="normal" in2="effect1_backgroundBlur_50_7472" result="effect2_dropShadow_50_7472"/>
<feBlend mode="normal" in="SourceGraphic" in2="effect2_dropShadow_50_7472" result="shape"/>
<feColorMatrix in="SourceAlpha" type="matrix" values="0 0 0 0 0 0 0 0 0 0 0 0 0 0 0 0 0 0 127 0" result="hardAlpha"/>
<feOffset/>
<feGaussianBlur stdDeviation="6"/>
<feComposite in2="hardAlpha" operator="arithmetic" k2="-1" k3="1"/>
<feColorMatrix type="matrix" values="0 0 0 0 0.4464 0 0 0 0 0.4464 0 0 0 0 0.48 0 0 0 0.12 0"/>
<feBlend mode="normal" in2="shape" result="effect3_innerShadow_50_7472"/>
</filter>
<filter id="filter3_i_50_7472" x="181" y="265" width="164" height="74" filterUnits="userSpaceOnUse" color-interpolation-filters="sRGB">
<feFlood flood-opacity="0" result="BackgroundImageFix"/>
<feBlend mode="normal" in="SourceGraphic" in2="BackgroundImageFix" result="shape"/>
<feColorMatrix in="SourceAlpha" type="matrix" values="0 0 0 0 0 0 0 0 0 0 0 0 0 0 0 0 0 0 127 0" result="hardAlpha"/>
<feMorphology radius="16" operator="erode" in="SourceAlpha" result="effect1_innerShadow_50_7472"/>
<feOffset/>
<feGaussianBlur stdDeviation="12"/>
<feComposite in2="hardAlpha" operator="arithmetic" k2="-1" k3="1"/>
<feColorMatrix type="matrix" values="0 0 0 0 0.388235 0 0 0 0 0.4 0 0 0 0 0.945098 0 0 0 0.12 0"/>
<feBlend mode="normal" in2="shape" result="effect1_innerShadow_50_7472"/>
</filter>
<filter id="filter4_d_50_7472" x="171.25" y="126.25" width="105.5" height="35.5" filterUnits="userSpaceOnUse" color-interpolation-filters="sRGB">
<feFlood flood-opacity="0" result="BackgroundImageFix"/>
<feColorMatrix in="SourceAlpha" type="matrix" values="0 0 0 0 0 0 0 0 0 0 0 0 0 0 0 0 0 0 127 0" result="hardAlpha"/>
<feOffset/>
<feGaussianBlur stdDeviation="2"/>
<feComposite in2="hardAlpha" operator="out"/>
<feColorMatrix type="matrix" values="0 0 0 0 0.388235 0 0 0 0 0.4 0 0 0 0 0.945098 0 0 0 0.12 0"/>
<feBlend mode="normal" in2="BackgroundImageFix" result="effect1_dropShadow_50_7472"/>
<feBlend mode="normal" in="SourceGraphic" in2="effect1_dropShadow_50_7472" result="shape"/>
</filter>
<filter id="filter5_d_50_7472" x="267.25" y="126.25" width="105.5" height="34.5" filterUnits="userSpaceOnUse" color-interpolation-filters="sRGB">
<feFlood flood-opacity="0" result="BackgroundImageFix"/>
<feColorMatrix in="SourceAlpha" type="matrix" values="0 0 0 0 0 0 0 0 0 0 0 0 0 0 0 0 0 0 127 0" result="hardAlpha"/>
<feOffset/>
<feGaussianBlur stdDeviation="2"/>
<feComposite in2="hardAlpha" operator="out"/>
<feColorMatrix type="matrix" values="0 0 0 0 0.388235 0 0 0 0 0.4 0 0 0 0 0.945098 0 0 0 0.12 0"/>
<feBlend mode="normal" in2="BackgroundImageFix" result="effect1_dropShadow_50_7472"/>
<feBlend mode="normal" in="SourceGraphic" in2="effect1_dropShadow_50_7472" result="shape"/>
</filter>
<filter id="filter6_d_50_7472" x="171.25" y="225.25" width="105.5" height="35.5" filterUnits="userSpaceOnUse" color-interpolation-filters="sRGB">
<feFlood flood-opacity="0" result="BackgroundImageFix"/>
<feColorMatrix in="SourceAlpha" type="matrix" values="0 0 0 0 0 0 0 0 0 0 0 0 0 0 0 0 0 0 127 0" result="hardAlpha"/>
<feOffset/>
<feGaussianBlur stdDeviation="2"/>
<feComposite in2="hardAlpha" operator="out"/>
<feColorMatrix type="matrix" values="0 0 0 0 0.388235 0 0 0 0 0.4 0 0 0 0 0.945098 0 0 0 0.12 0"/>
<feBlend mode="normal" in2="BackgroundImageFix" result="effect1_dropShadow_50_7472"/>
<feBlend mode="normal" in="SourceGraphic" in2="effect1_dropShadow_50_7472" result="shape"/>
</filter>
<filter id="filter7_bdi_50_7472" x="180" y="247" width="183" height="94" filterUnits="userSpaceOnUse" color-interpolation-filters="sRGB">
<feFlood flood-opacity="0" result="BackgroundImageFix"/>
<feGaussianBlur in="BackgroundImageFix" stdDeviation="2"/>
<feComposite in2="SourceAlpha" operator="in" result="effect1_backgroundBlur_50_7472"/>
<feColorMatrix in="SourceAlpha" type="matrix" values="0 0 0 0 0 0 0 0 0 0 0 0 0 0 0 0 0 0 127 0" result="hardAlpha"/>
<feMorphology radius="6" operator="erode" in="SourceAlpha" result="effect2_dropShadow_50_7472"/>
<feOffset dy="2"/>
<feGaussianBlur stdDeviation="8"/>
<feComposite in2="hardAlpha" operator="out"/>
<feColorMatrix type="matrix" values="0 0 0 0 0.0666667 0 0 0 0 0.0666667 0 0 0 0 0.0784314 0 0 0 1 0"/>
<feBlend mode="normal" in2="effect1_backgroundBlur_50_7472" result="effect2_dropShadow_50_7472"/>
<feBlend mode="normal" in="SourceGraphic" in2="effect2_dropShadow_50_7472" result="shape"/>
<feColorMatrix in="SourceAlpha" type="matrix" values="0 0 0 0 0 0 0 0 0 0 0 0 0 0 0 0 0 0 127 0" result="hardAlpha"/>
<feOffset/>
<feGaussianBlur stdDeviation="6"/>
<feComposite in2="hardAlpha" operator="arithmetic" k2="-1" k3="1"/>
<feColorMatrix type="matrix" values="0 0 0 0 0.4464 0 0 0 0 0.4464 0 0 0 0 0.48 0 0 0 0.12 0"/>
<feBlend mode="normal" in2="shape" result="effect3_innerShadow_50_7472"/>
</filter>
<filter id="filter8_f_50_7472" x="43" y="15" width="459" height="501" filterUnits="userSpaceOnUse" color-interpolation-filters="sRGB">
<feFlood flood-opacity="0" result="BackgroundImageFix"/>
<feBlend mode="normal" in="SourceGraphic" in2="BackgroundImageFix" result="shape"/>
<feGaussianBlur stdDeviation="16" result="effect1_foregroundBlur_50_7472"/>
</filter>
<filter id="filter9_f_50_7472" x="157" y="241" width="212" height="122" filterUnits="userSpaceOnUse" color-interpolation-filters="sRGB">
<feFlood flood-opacity="0" result="BackgroundImageFix"/>
<feBlend mode="normal" in="SourceGraphic" in2="BackgroundImageFix" result="shape"/>
<feGaussianBlur stdDeviation="12" result="effect1_foregroundBlur_50_7472"/>
</filter>
<filter id="filter10_d_50_7472" x="80" y="214" width="54" height="54" filterUnits="userSpaceOnUse" color-interpolation-filters="sRGB">
<feFlood flood-opacity="0" result="BackgroundImageFix"/>
<feColorMatrix in="SourceAlpha" type="matrix" values="0 0 0 0 0 0 0 0 0 0 0 0 0 0 0 0 0 0 127 0" result="hardAlpha"/>
<feMorphology radius="5" operator="erode" in="SourceAlpha" result="effect1_dropShadow_50_7472"/>
<feOffset dy="4"/>
<feGaussianBlur stdDeviation="5"/>
<feComposite in2="hardAlpha" operator="out"/>
<feColorMatrix type="matrix" values="0 0 0 0 0.822431 0 0 0 0 0.822431 0 0 0 0 0.839216 0 0 0 0.48 0"/>
<feBlend mode="normal" in2="BackgroundImageFix" result="effect1_dropShadow_50_7472"/>
<feBlend mode="normal" in="SourceGraphic" in2="effect1_dropShadow_50_7472" result="shape"/>
</filter>
<filter id="filter11_d_50_7472" x="393" y="128" width="60" height="60" filterUnits="userSpaceOnUse" color-interpolation-filters="sRGB">
<feFlood flood-opacity="0" result="BackgroundImageFix"/>
<feColorMatrix in="SourceAlpha" type="matrix" values="0 0 0 0 0 0 0 0 0 0 0 0 0 0 0 0 0 0 127 0" result="hardAlpha"/>
<feMorphology radius="2" operator="erode" in="SourceAlpha" result="effect1_dropShadow_50_7472"/>
<feOffset dy="2"/>
<feGaussianBlur stdDeviation="8"/>
<feComposite in2="hardAlpha" operator="out"/>
<feColorMatrix type="matrix" values="0 0 0 0 0.822431 0 0 0 0 0.822431 0 0 0 0 0.839216 0 0 0 0.3 0"/>
<feBlend mode="normal" in2="BackgroundImageFix" result="effect1_dropShadow_50_7472"/>
<feBlend mode="normal" in="SourceGraphic" in2="effect1_dropShadow_50_7472" result="shape"/>
</filter>
<radialGradient id="paint0_radial_50_7472" cx="0" cy="0" r="1" gradientUnits="userSpaceOnUse" gradientTransform="translate(209.124 66) rotate(40.3975) scale(115.23 55.6182)">
<stop offset="0.1" stop-color="#414147"/>
<stop offset="1" stop-color="#37373D" stop-opacity="0"/>
</radialGradient>
<radialGradient id="paint1_radial_50_7472" cx="0" cy="0" r="1" gradientUnits="userSpaceOnUse" gradientTransform="translate(116.124 156) rotate(43.6557) scale(121.293 59.2429)">
<stop offset="0.1" stop-color="#414147"/>
<stop offset="1" stop-color="#37373D" stop-opacity="0"/>
</radialGradient>
<radialGradient id="paint2_radial_50_7472" cx="0" cy="0" r="1" gradientUnits="userSpaceOnUse" gradientTransform="translate(303.124 156) rotate(43.6557) scale(121.293 59.2429)">
<stop offset="0.1" stop-color="#414147"/>
<stop offset="1" stop-color="#37373D" stop-opacity="0"/>
</radialGradient>
<radialGradient id="paint3_radial_50_7472" cx="0" cy="0" r="1" gradientUnits="userSpaceOnUse" gradientTransform="translate(209.124 255) rotate(43.6557) scale(121.293 59.2429)">
<stop offset="0.1" stop-color="#414147"/>
<stop offset="1" stop-color="#37373D" stop-opacity="0"/>
</radialGradient>
<linearGradient id="paint4_linear_50_7472" x1="83.587" y1="-29.475" x2="503.319" y2="-4.73209" gradientUnits="userSpaceOnUse">
<stop stop-color="#4338CA"/>
<stop offset="1" stop-color="#D97706"/>
</linearGradient>
<linearGradient id="paint5_linear_50_7472" x1="58.5" y1="121" x2="207.325" y2="-104.02" gradientUnits="userSpaceOnUse">
<stop stop-color="#4338CA"/>
<stop offset="1" stop-color="#D97706"/>
</linearGradient>
<linearGradient id="paint6_linear_50_7472" x1="66.9565" y1="33.5" x2="155.314" y2="59.4309" gradientUnits="userSpaceOnUse">
<stop stop-color="#4338CA"/>
<stop offset="1" stop-color="#D97706"/>
</linearGradient>
<radialGradient id="paint7_radial_50_7472" cx="0" cy="0" r="1" gradientUnits="userSpaceOnUse" gradientTransform="translate(410.556 145.333) rotate(41.4237) scale(20.1525)">
<stop stop-color="#FDA4AF"/>
<stop offset="1" stop-color="#FB7185"/>
</radialGradient>
<radialGradient id="paint8_radial_50_7472" cx="0" cy="0" r="1" gradientUnits="userSpaceOnUse" gradientTransform="translate(24 182) rotate(90) scale(165.981 19.2427)">
<stop stop-color="#86868F" stop-opacity="0.08"/>
<stop offset="1" stop-color="#86868F" stop-opacity="0"/>
</radialGradient>
<clipPath id="clip0_50_7472">
<rect x="24" width="463" height="367" rx="8" fill="white"/>
</clipPath>
</defs>
</svg>
