<svg width="42" height="42" viewBox="0 0 42 42" fill="none" xmlns="http://www.w3.org/2000/svg">
<path d="M3 22.9338V21.8927C3 18.8214 6.31793 16.896 8.98456 18.4197L9.27124 18.5836C9.7488 18.8565 10.2893 19 10.8394 19C12.5849 19 14 17.5849 14 15.8394V12C14 9.79086 15.7909 8 18 8H33C35.2091 8 37 9.79086 37 12V32C37 34.2091 35.2091 36 33 36H18C15.7909 36 14 34.2091 14 32V29.3188C14 27.4859 12.5141 26 10.6812 26C10.2318 26 9.78698 26.0913 9.37387 26.2683L8.57568 26.6104C5.9362 27.7416 3 25.8055 3 22.9338Z" fill="url(#paint0_linear_41_5037)"/>
<g filter="url(#filter0_d_41_5037)">
<path d="M26.053 24.5186L26.6402 24.8998L26.053 24.5186L23.8056 27.9806L21.5219 17.0658L31.2704 22.6528L26.636 24.0785C26.3961 24.1523 26.1897 24.3081 26.053 24.5186Z" stroke="white" stroke-width="1.4"/>
</g>
<defs>
<filter id="filter0_d_41_5037" x="19.1971" y="15.303" width="14.7478" height="16.1201" filterUnits="userSpaceOnUse" color-interpolation-filters="sRGB">
<feFlood flood-opacity="0" result="BackgroundImageFix"/>
<feColorMatrix in="SourceAlpha" type="matrix" values="0 0 0 0 0 0 0 0 0 0 0 0 0 0 0 0 0 0 127 0" result="hardAlpha"/>
<feOffset dy="0.740483"/>
<feGaussianBlur stdDeviation="0.740483"/>
<feColorMatrix type="matrix" values="0 0 0 0 0 0 0 0 0 0 0 0 0 0 0 0 0 0 0.28 0"/>
<feBlend mode="normal" in2="BackgroundImageFix" result="effect1_dropShadow_41_5037"/>
<feBlend mode="normal" in="SourceGraphic" in2="effect1_dropShadow_41_5037" result="shape"/>
</filter>
<linearGradient id="paint0_linear_41_5037" x1="37" y1="22" x2="3" y2="22" gradientUnits="userSpaceOnUse">
<stop offset="0.1" stop-color="#FB7185"/>
<stop offset="1" stop-color="#6366F1"/>
</linearGradient>
</defs>
</svg>
