<svg width="36" height="30" viewBox="0 0 36 30" fill="none" xmlns="http://www.w3.org/2000/svg">
<path fill-rule="evenodd" clip-rule="evenodd" d="M16 2C14.3431 2 13 3.34315 13 5V8.83936C13 11.1372 11.1372 13 8.83936 13C8.11529 13 7.40376 12.811 6.7751 12.4518L6.48842 12.288C4.48845 11.1451 2 12.5893 2 14.8927V15.9338C2 18.0876 4.20215 19.5397 6.18176 18.6913L6.97995 18.3492C7.51754 18.1188 8.09633 18 8.68121 18C11.0664 18 13 19.9336 13 22.3188V25C13 26.6569 14.3431 28 16 28H31C32.6569 28 34 26.6569 34 25V5C34 3.34315 32.6569 2 31 2H16ZM11 5C11 2.23858 13.2386 0 16 0H31C33.7614 0 36 2.23858 36 5V25C36 27.7614 33.7614 30 31 30H16C13.2386 30 11 27.7614 11 25V22.3188C11 21.0382 9.96184 20 8.68121 20C8.36718 20 8.05643 20.0638 7.76779 20.1875L6.9696 20.5296C3.67026 21.9436 0 19.5234 0 15.9338V14.8927C0 11.0536 4.14741 8.64677 7.4807 10.5515L6.98456 11.4197L7.4807 10.5515L7.76738 10.7153C8.09384 10.9019 8.46334 11 8.83936 11C10.0326 11 11 10.0326 11 8.83936V5Z" fill="url(#paint0_linear_59_19909)"/>
<defs>
<linearGradient id="paint0_linear_59_19909" x1="35" y1="15" x2="1" y2="15" gradientUnits="userSpaceOnUse">
<stop stop-color="#FB7185"/>
<stop offset="0.705" stop-color="#6366F1"/>
</linearGradient>
</defs>
</svg>
