<svg width="22" height="22" viewBox="0 0 22 22" fill="none" xmlns="http://www.w3.org/2000/svg">
<path fill-rule="evenodd" clip-rule="evenodd" d="M11.0091 0C4.92135 0 0 5.04165 0 11.2788C0 16.2646 3.15328 20.4849 7.52772 21.9786C8.07463 22.0909 8.27497 21.7359 8.27497 21.4373C8.27497 21.1758 8.25694 20.2796 8.25694 19.3457C5.19447 20.0181 4.55674 18.0012 4.55674 18.0012C4.06458 16.694 3.33536 16.3581 3.33536 16.3581C2.33302 15.6671 3.40837 15.6671 3.40837 15.6671C4.52024 15.7419 5.10366 16.8249 5.10366 16.8249C6.08775 18.5427 7.67352 18.0573 8.31147 17.7585C8.40251 17.0302 8.69434 16.5261 9.00419 16.246C6.56165 15.9845 3.9918 15.0136 3.9918 10.6812C3.9918 9.44873 4.42897 8.4404 5.12169 7.6562C5.01239 7.37616 4.62953 6.21818 5.23121 4.66834C5.23121 4.66834 6.16076 4.3695 8.25671 5.82608C9.15407 5.57919 10.0795 5.4536 11.0091 5.45254C11.9387 5.45254 12.8862 5.58339 13.7613 5.82608C15.8574 4.3695 16.787 4.66834 16.787 4.66834C17.3887 6.21818 17.0056 7.37616 16.8963 7.6562C17.6073 8.4404 18.0264 9.44873 18.0264 10.6812C18.0264 15.0136 15.4566 15.9657 12.9958 16.246C13.3969 16.6008 13.743 17.2729 13.743 18.3374C13.743 19.8499 13.725 21.0638 13.725 21.4371C13.725 21.7359 13.9255 22.0909 14.4722 21.9788C18.8467 20.4847 22 16.2646 22 11.2788C22.018 5.04165 17.0786 0 11.0091 0Z" fill="currentColor"/>
</svg>
