<svg width="43" height="42" viewBox="0 0 43 42" fill="none" xmlns="http://www.w3.org/2000/svg">
<g clip-path="url(#clip0_61_19938)">
<circle cx="21.5" cy="21" r="21" fill="currentColor"/>
<path fill-rule="evenodd" clip-rule="evenodd" d="M36.4643 18.5722L36.4635 18.5672L36.4627 18.5622C35.9927 16.2065 34.6999 14.9307 33.6972 14.2756C32.5227 13.4535 31.0563 13.0006 29.5679 13.0006L10.6444 12.9998C9.58031 12.9998 9.01318 13.9804 9.01318 14.6883V14.9041L9.01307 14.9234C9.01042 15.3761 8.96333 23.4273 9.06591 27.7948C9.06591 27.8036 9.06632 27.8127 9.06715 27.8214C9.17219 29.5211 10.1333 30.3336 10.9217 30.716C11.7277 31.1068 12.5169 31.1157 12.5654 31.1162L12.5666 31.1162H12.57C12.9237 31.1162 21.2848 31.1158 25.383 31.0639H25.383C25.6209 31.0639 25.8459 31.0639 26.1457 30.9917L26.156 30.9892C27.4028 30.6703 28.2913 29.9409 28.7965 28.8207C29.0353 28.2914 29.1797 27.6948 29.2362 27.0006C30.38 26.9716 31.4557 26.7457 32.4359 26.328C33.4685 25.888 34.3428 25.2577 35.0341 24.4544C36.3917 22.8767 36.8994 20.788 36.4643 18.5722ZM19.1051 26.9751C19.2276 26.9996 19.3339 26.8933 19.3339 26.8933C19.3339 26.8933 22.3588 24.1424 23.7343 22.5506C24.9424 21.122 24.9997 18.7547 22.9629 17.8771C20.8729 16.9952 19.1666 18.9216 19.1666 18.9216C17.6807 17.2726 15.4275 17.3826 14.3825 18.4807C13.3376 19.5788 13.7212 21.4521 14.4926 22.5502C15.1467 23.4585 18.3512 26.3505 18.9188 26.8628L18.9188 26.8628L18.9619 26.9017C19.0026 26.9382 19.0516 26.9668 19.1047 26.9751H19.1051ZM29.183 23.8095C28.8301 23.8095 28.6043 23.7946 28.5798 23.7929C28.2161 23.768 27.9313 23.4628 27.9313 23.0983V16.8857C27.9317 16.5017 28.2439 16.1895 28.6279 16.1895H29.8934C30.955 16.1895 31.9053 16.6295 32.5687 17.4287C33.1155 18.0594 33.3941 18.8598 33.3941 19.8044C33.3941 21.8184 32.4724 23.132 30.6552 23.709C30.6116 23.7227 30.5664 23.7323 30.5211 23.7373C30.0898 23.785 29.6397 23.8095 29.183 23.8095Z" fill="#242429"/>
</g>
<defs>
<clipPath id="clip0_61_19938">
<rect x="0.5" width="42" height="42" rx="21" fill="white"/>
</clipPath>
</defs>
</svg>
