<svg width="43" height="42" viewBox="0 0 43 42" fill="none" xmlns="http://www.w3.org/2000/svg">
<g clip-path="url(#clip0_60_19922)">
<path fill-rule="evenodd" clip-rule="evenodd" d="M21.3333 42C32.9312 42 42.3333 32.598 42.3333 21C42.3333 9.40202 32.9312 0 21.3333 0C9.73527 0 0.333252 9.40202 0.333252 21C0.333252 32.598 9.73527 42 21.3333 42ZM33.3333 30.3333C33.3333 31.8061 32.1393 33 30.6666 33H11.9999C10.5272 33 9.33325 31.8061 9.33325 30.3333V11.6667C9.33325 10.1939 10.5272 9 11.9999 9H30.6666C32.1393 9 33.3333 10.1939 33.3333 11.6667V30.3333Z" fill="currentColor"/>
<path fill-rule="evenodd" clip-rule="evenodd" d="M30 29.6666H26.4385V23.6006C26.4385 21.9375 25.8066 21.0081 24.4902 21.0081C23.0582 21.0081 22.31 21.9753 22.31 23.6006V29.6666H18.8777V18.111H22.31V19.6676C22.31 19.6676 23.342 17.758 25.7941 17.758C28.2452 17.758 30 19.2547 30 22.3503V29.6666ZM14.7831 16.5979C13.614 16.5979 12.6666 15.6431 12.6666 14.4656C12.6666 13.288 13.614 12.3333 14.7831 12.3333C15.9522 12.3333 16.899 13.288 16.899 14.4656C16.899 15.6431 15.9522 16.5979 14.7831 16.5979ZM13.0108 29.6666H16.5898V18.111H13.0108V29.6666Z" fill="currentColor"/>
</g>
<defs>
<clipPath id="clip0_60_19922">
<rect x="0.333252" width="42" height="42" rx="21" fill="white"/>
</clipPath>
</defs>
</svg>
