<svg width="32" height="32" viewBox="0 0 32 32" fill="none" xmlns="http://www.w3.org/2000/svg">
<g clip-path="url(#clip0_24_14492)">
<path fill-rule="evenodd" clip-rule="evenodd" d="M9.11145 16.8067C8.91545 16.0567 8.71946 15.1127 8.29946 13.7027C7.96546 12.5887 7.61546 11.9847 7.35946 11.2367C7.04946 10.3267 6.75346 9.7947 6.36746 8.8747C6.08946 8.2167 5.63946 6.7787 5.45346 5.9947C5.21546 4.9767 5.51946 4.1467 5.94146 3.5827C6.44746 2.9047 7.86546 2.6027 8.65546 2.8807C9.39746 3.1407 10.1435 3.9047 10.4875 4.4567C11.0635 5.3767 11.2015 5.7207 11.9215 7.5407C12.7075 9.5247 13.0495 11.3767 13.1435 12.0027L13.3135 12.9067C13.3115 12.8267 13.2275 10.6627 13.2255 10.5827C13.1555 8.5247 13.1055 6.9367 13.1495 4.7047C13.1535 4.4527 13.2775 3.5307 13.3175 3.2747C13.4735 2.2747 13.9275 1.6747 14.6635 1.3167C15.4875 0.914701 16.5155 0.886701 17.4655 1.2827C18.3115 1.6287 18.7175 2.3827 18.8395 3.3267C18.8675 3.5447 19.0275 5.3007 19.0255 5.5407C18.9995 7.5907 19.0375 8.8227 19.0555 9.8887C19.0635 10.3507 19.0615 13.1387 19.0895 12.8267C19.2115 11.5147 19.2775 6.4487 19.7775 4.9427C20.0655 4.0767 20.5875 3.4507 21.3655 3.0847C22.2275 2.6787 23.5915 2.9447 24.1735 3.5707C24.7435 4.1807 25.0655 4.9547 25.1375 5.8767C25.2015 6.6867 25.0995 7.6707 25.0975 8.3667C25.0975 10.1007 25.0555 11.0147 25.0235 12.6087C25.0215 12.6847 24.9935 13.2047 25.0695 12.9727C25.2575 12.4127 25.4455 11.8887 25.6015 11.4827C25.6995 11.2327 26.0835 10.2547 26.3195 9.7647C26.5475 9.2967 26.7415 9.0267 27.1495 8.3887C27.5495 7.7627 27.9795 7.4927 28.4855 7.2667C29.5655 6.7967 30.7035 7.4907 31.0875 8.4487C31.2595 8.8787 31.1055 9.8747 31.0315 10.6587C30.9095 11.9527 30.5235 13.2707 30.3275 13.9547C30.0715 14.8487 29.7795 16.4247 29.6475 17.1567C29.5035 17.9447 29.1795 19.9207 28.9295 20.7967C28.7575 21.3987 28.1875 22.7527 27.6255 23.5647C27.6255 23.5647 25.4775 26.0647 25.2415 27.1887C25.0075 28.3147 25.0855 28.3227 25.0395 29.1187C24.9915 29.9167 25.2815 30.9647 25.2815 30.9647C25.2815 30.9647 23.6775 31.1727 22.8135 31.0327C22.0315 30.9087 21.0635 29.3507 20.8135 28.8767C20.4695 28.2207 19.7355 28.3467 19.4495 28.8307C18.9995 29.5967 18.0315 30.9707 17.3475 31.0567C16.0115 31.2247 13.2395 31.1167 11.0695 31.0967C11.0695 31.0967 11.4395 29.0747 10.6155 28.3807C10.0055 27.8607 8.95546 26.8127 8.32746 26.2607L6.66346 24.4187C6.09546 23.6987 5.40546 22.2327 4.17746 20.4487C3.48146 19.4407 2.12346 18.2787 1.60946 17.2907C1.16346 16.4407 0.947456 15.3827 1.22946 14.6407C1.67946 13.4527 2.57946 12.8467 3.95346 12.9767C4.99146 13.0767 5.64946 13.3887 6.42946 14.0507C6.87946 14.4307 7.57546 15.1187 7.92946 15.5467C8.25546 15.9367 8.33546 16.0987 8.68346 16.5647C9.14346 17.1787 9.28745 17.4827 9.11145 16.8067Z" fill="white"/>
<path fill-rule="evenodd" clip-rule="evenodd" d="M9.11145 16.8067C8.91545 16.0567 8.71946 15.1127 8.29946 13.7027C7.96546 12.5887 7.61546 11.9847 7.35946 11.2367C7.04946 10.3267 6.75346 9.7947 6.36746 8.8747C6.08946 8.2167 5.63946 6.7787 5.45346 5.9947C5.21546 4.9767 5.51946 4.1467 5.94146 3.5827C6.44746 2.9047 7.86546 2.6027 8.65546 2.8807C9.39746 3.1407 10.1435 3.9047 10.4875 4.4567C11.0635 5.3767 11.2015 5.7207 11.9215 7.5407C12.7075 9.5247 13.0495 11.3767 13.1435 12.0027L13.3135 12.9067C13.3115 12.8267 13.2275 10.6627 13.2255 10.5827C13.1555 8.5247 13.1055 6.9367 13.1495 4.7047C13.1535 4.4527 13.2775 3.5307 13.3175 3.2747C13.4735 2.2747 13.9275 1.6747 14.6635 1.3167C15.4875 0.914701 16.5155 0.886701 17.4655 1.2827C18.3115 1.6287 18.7175 2.3827 18.8395 3.3267C18.8675 3.5447 19.0275 5.3007 19.0255 5.5407C18.9995 7.5907 19.0375 8.8227 19.0555 9.8887C19.0635 10.3507 19.0615 13.1387 19.0895 12.8267C19.2115 11.5147 19.2775 6.4487 19.7775 4.9427C20.0655 4.0767 20.5875 3.4507 21.3655 3.0847C22.2275 2.6787 23.5915 2.9447 24.1735 3.5707C24.7435 4.1807 25.0655 4.9547 25.1375 5.8767C25.2015 6.6867 25.0995 7.6707 25.0975 8.3667C25.0975 10.1007 25.0555 11.0147 25.0235 12.6087C25.0215 12.6847 24.9935 13.2047 25.0695 12.9727C25.2575 12.4127 25.4455 11.8887 25.6015 11.4827C25.6995 11.2327 26.0835 10.2547 26.3195 9.7647C26.5475 9.2967 26.7415 9.0267 27.1495 8.3887C27.5495 7.7627 27.9795 7.4927 28.4855 7.2667C29.5655 6.7967 30.7035 7.4907 31.0875 8.4487C31.2595 8.8787 31.1055 9.8747 31.0315 10.6587C30.9095 11.9527 30.5235 13.2707 30.3275 13.9547C30.0715 14.8487 29.7795 16.4247 29.6475 17.1567C29.5035 17.9447 29.1795 19.9207 28.9295 20.7967C28.7575 21.3987 28.1875 22.7527 27.6255 23.5647C27.6255 23.5647 25.4775 26.0647 25.2415 27.1887C25.0075 28.3147 25.0855 28.3227 25.0395 29.1187C24.9915 29.9167 25.2815 30.9647 25.2815 30.9647C25.2815 30.9647 23.6775 31.1727 22.8135 31.0327C22.0315 30.9087 21.0635 29.3507 20.8135 28.8767C20.4695 28.2207 19.7355 28.3467 19.4495 28.8307C18.9995 29.5967 18.0315 30.9707 17.3475 31.0567C16.0115 31.2247 13.2395 31.1167 11.0695 31.0967C11.0695 31.0967 11.4395 29.0747 10.6155 28.3807C10.0055 27.8607 8.95546 26.8127 8.32746 26.2607L6.66346 24.4187C6.09546 23.6987 5.40546 22.2327 4.17746 20.4487C3.48146 19.4407 2.12346 18.2787 1.60946 17.2907C1.16346 16.4407 0.947456 15.3827 1.22946 14.6407C1.67946 13.4527 2.57946 12.8467 3.95346 12.9767C4.99146 13.0767 5.64946 13.3887 6.42946 14.0507C6.87946 14.4307 7.57546 15.1187 7.92946 15.5467C8.25546 15.9367 8.33546 16.0987 8.68346 16.5647C9.14346 17.1787 9.28745 17.4827 9.11145 16.8067Z" fill="url(#paint0_radial_24_14492)" stroke="#242429" stroke-width="1.4"/>
<path fill-rule="evenodd" clip-rule="evenodd" d="M23.1328 25.1271V18.2091V25.1271Z" fill="#242429"/>
<path d="M23.1328 25.1271V18.2091" stroke="#242429" stroke-width="1.3" stroke-linecap="round" stroke-linejoin="round"/>
<path fill-rule="evenodd" clip-rule="evenodd" d="M19.1016 25.1505L19.0696 18.2045L19.1016 25.1505Z" fill="#242429"/>
<path d="M19.1016 25.1505L19.0696 18.2045" stroke="#242429" stroke-width="1.3" stroke-linecap="round" stroke-linejoin="round"/>
<path fill-rule="evenodd" clip-rule="evenodd" d="M15.1094 18.2677L15.1514 25.1197L15.1094 18.2677Z" fill="#242429"/>
<path d="M15.1094 18.2677L15.1514 25.1197" stroke="#242429" stroke-width="1.3" stroke-linecap="round" stroke-linejoin="round"/>
</g>
<defs>
<radialGradient id="paint0_radial_24_14492" cx="0" cy="0" r="1" gradientUnits="userSpaceOnUse" gradientTransform="translate(4.44312 6.02488) rotate(41.5051) scale(18.9565 18.9632)">
<stop stop-color="#FDA4AF"/>
<stop offset="1" stop-color="#FB7185"/>
</radialGradient>
<clipPath id="clip0_24_14492">
<rect width="32" height="32" fill="white"/>
</clipPath>
</defs>
</svg>
