<svg width="97" height="97" viewBox="0 0 97 97" fill="none" xmlns="http://www.w3.org/2000/svg">
<g clip-path="url(#clip0_82_32507)">
<mask id="mask0_82_32507" style="mask-type:alpha" maskUnits="userSpaceOnUse" x="0" y="0" width="97" height="97">
<rect x="0.322021" y="0.595825" width="96" height="96" fill="#D9D9D9"/>
</mask>
<g mask="url(#mask0_82_32507)">
<g filter="url(#filter0_d_82_32507)">
<path d="M44.222 59.4958L58.522 50.2958C59.122 49.9091 59.422 49.3458 59.422 48.6058C59.422 47.8658 59.122 47.2958 58.522 46.8958L44.222 37.6958C43.4886 37.2291 42.772 37.1978 42.072 37.6018C41.372 38.0051 41.022 38.6031 41.022 39.3958V57.7958C41.022 58.5884 41.372 59.1864 42.072 59.5898C42.772 59.9938 43.4886 59.9624 44.222 59.4958ZM48.339 83.3958C43.5276 83.3958 39.02 82.4828 34.816 80.6568C30.612 78.8308 26.9263 76.3358 23.759 73.1718C20.591 70.0078 18.093 66.3268 16.265 62.1288C14.4363 57.9301 13.522 53.4248 13.522 48.6128C13.522 43.8014 14.435 39.2771 16.261 35.0398C18.087 30.8024 20.582 27.1168 23.746 23.9828C26.91 20.8481 30.591 18.3668 34.789 16.5388C38.9876 14.7101 43.493 13.7958 48.305 13.7958C53.1163 13.7958 57.6406 14.7088 61.878 16.5348C66.1153 18.3608 69.801 20.8391 72.935 23.9698C76.0696 27.1004 78.551 30.7814 80.379 35.0128C82.2076 39.2448 83.122 43.7668 83.122 48.5788C83.122 53.3901 82.209 57.8978 80.383 62.1018C78.557 66.3058 76.0786 69.9914 72.948 73.1588C69.8173 76.3268 66.1363 78.8248 61.905 80.6528C57.673 82.4814 53.151 83.3958 48.339 83.3958ZM48.322 81.1958C57.3886 81.1958 65.0886 78.0291 71.422 71.6958C77.7553 65.3624 80.922 57.6624 80.922 48.5958C80.922 39.5291 77.7553 31.8291 71.422 25.4958C65.0886 19.1624 57.3886 15.9958 48.322 15.9958C39.2553 15.9958 31.5553 19.1624 25.222 25.4958C18.8886 31.8291 15.722 39.5291 15.722 48.5958C15.722 57.6624 18.8886 65.3624 25.222 71.6958C31.5553 78.0291 39.2553 81.1958 48.322 81.1958Z" fill="currentColor"/>
</g>
</g>
</g>
<defs>
<filter id="filter0_d_82_32507" x="5.52197" y="5.79578" width="85.6001" height="85.6" filterUnits="userSpaceOnUse" color-interpolation-filters="sRGB">
<feFlood flood-opacity="0" result="BackgroundImageFix"/>
<feColorMatrix in="SourceAlpha" type="matrix" values="0 0 0 0 0 0 0 0 0 0 0 0 0 0 0 0 0 0 127 0" result="hardAlpha"/>
<feOffset/>
<feGaussianBlur stdDeviation="4"/>
<feComposite in2="hardAlpha" operator="out"/>
<feColorMatrix type="matrix" values="0 0 0 0 1 0 0 0 0 1 0 0 0 0 1 0 0 0 0.25 0"/>
<feBlend mode="normal" in2="BackgroundImageFix" result="effect1_dropShadow_82_32507"/>
<feBlend mode="normal" in="SourceGraphic" in2="effect1_dropShadow_82_32507" result="shape"/>
</filter>
<clipPath id="clip0_82_32507">
<rect width="96" height="96" fill="white" transform="translate(0.322021 0.595825)"/>
</clipPath>
</defs>
</svg>
