<svg width="24" height="22" viewBox="0 0 24 22" fill="none" xmlns="http://www.w3.org/2000/svg">
<g clip-path="url(#clip0_31_34872)">
<path d="M12.0004 12.988C13.1088 12.988 14.0073 12.0895 14.0073 10.9811C14.0073 9.87264 13.1088 8.97409 12.0004 8.97409C10.892 8.97409 9.99341 9.87264 9.99341 10.9811C9.99341 12.0895 10.892 12.988 12.0004 12.988Z" fill="currentColor"/>
<path d="M12.0003 6.9008C14.6944 6.9008 17.1975 7.28747 19.0844 7.93678C21.358 8.71941 22.7561 9.90594 22.7561 10.9804C22.7561 12.0999 21.2744 13.3608 18.833 14.1692C16.9872 14.7808 14.5578 15.1004 12.0003 15.1004C9.37787 15.1004 6.89536 14.8007 5.02834 14.1626C2.66655 13.3555 1.2439 12.0787 1.2439 10.9804C1.2439 9.91456 2.579 8.73731 4.82075 7.95602C6.71496 7.29609 9.27971 6.9008 12.0003 6.9008Z" stroke="currentColor" stroke-miterlimit="10"/>
<path d="M8.44864 8.95286C9.79435 6.61892 11.3802 4.64379 12.8857 3.33389C14.6997 1.75538 16.4261 1.13724 17.3566 1.67381C18.3263 2.23292 18.6784 4.14636 18.1591 6.66601C17.7665 8.57084 16.83 10.8345 15.5519 13.0504C14.242 15.322 12.7418 17.323 11.2568 18.6216C9.37784 20.2644 7.56056 20.8587 6.60947 20.3102C5.68624 19.7776 5.3334 18.0333 5.77578 15.7007C6.14985 13.7282 7.08899 11.3094 8.44864 8.95286Z" stroke="currentColor" stroke-miterlimit="10"/>
<path d="M8.45206 13.055C7.10237 10.7231 6.18311 8.36325 5.79976 6.4047C5.33815 4.04489 5.66446 2.24022 6.59432 1.70233C7.56332 1.14123 9.39651 1.79186 11.3199 3.49971C12.7744 4.79104 14.2673 6.733 15.5487 8.9469C16.8626 11.2165 17.8475 13.5153 18.2302 15.45C18.715 17.8986 18.3224 19.7696 17.372 20.3195C16.4494 20.8534 14.7621 20.2883 12.9621 18.7396C11.4419 17.4311 9.81502 15.4095 8.45206 13.055Z" stroke="currentColor" stroke-miterlimit="10"/>
</g>
<defs>
<clipPath id="clip0_31_34872">
<rect width="24" height="22" fill="currentColor"/>
</clipPath>
</defs>
</svg>
