<svg width="32" height="24" viewBox="0 0 32 24" fill="none" xmlns="http://www.w3.org/2000/svg">
<g clip-path="url(#clip0_24_14502)">
<path fill-rule="evenodd" clip-rule="evenodd" d="M0 11.9814V11.9914L11.994 23.9834L11.996 15.9854H15.994H20.034V23.9854L31.994 11.9834L20.034 -0.0146016L20.036 8.0234L15.994 8.0274H11.994L11.996 -0.0166016L0 11.9814ZM2.822 11.9874L9.996 4.8114L9.994 9.9854H16.994H22.036V4.8154L29.166 11.9874L22.038 19.1574L22.036 13.9874H16.994L9.996 13.9854L9.994 19.1574L2.822 11.9874Z" fill="#6366F1"/>
<path opacity="0.44" fill-rule="evenodd" clip-rule="evenodd" d="M16.9941 13.9864H22.0361V19.1584L29.1661 11.9864L22.0361 4.81639V10.0264H16.9941H9.99414V4.81239L2.82214 11.9864L9.99414 19.1584V13.9844L16.9941 13.9864Z" fill="#6366F1"/>
</g>
<defs>
<clipPath id="clip0_24_14502">
<rect width="32" height="24" fill="white"/>
</clipPath>
</defs>
</svg>
