<svg width="347" height="186" viewBox="0 0 347 186" fill="none" xmlns="http://www.w3.org/2000/svg">
<g clip-path="url(#clip0_50_9958)">
<rect x="3" y="1" width="160" height="172" rx="7" stroke="url(#paint0_linear_50_9958)" stroke-width="2" stroke-dasharray="4 4"/>
<rect x="3" y="1" width="330" height="72" rx="7" stroke="url(#paint1_linear_50_9958)" stroke-width="2" stroke-dasharray="4 4"/>
<g filter="url(#filter0_i_50_9958)">
<rect x="1" y="1" width="162" height="72" rx="14" stroke="#6EE7B7" stroke-width="2" stroke-dasharray="4 4"/>
</g>
<g filter="url(#filter1_f_50_9958)">
<rect x="0.5" y="0.5" width="163" height="73" rx="7.5" stroke="#6EE7B7" stroke-dasharray="2 2"/>
</g>
<path fill-rule="evenodd" clip-rule="evenodd" d="M164 72.3012C163.572 71.3721 161.948 71.1852 161.125 71.4904C159.876 71.955 159.713 72.8978 159.699 73.2767C159.672 74.0322 159.951 74.7868 160.17 75.3774C160.241 75.5681 160.305 75.7416 160.35 75.8927C160.454 76.2398 160.625 76.566 160.78 76.8634L160.78 76.8634L160.78 76.8634L160.78 76.8634C160.913 77.1166 161.035 77.3489 161.094 77.5555C161.238 78.0399 161.16 77.934 160.896 77.5732C160.847 77.5062 160.791 77.4305 160.729 77.3481C160.456 76.9853 160.303 76.9021 159.988 76.7302C159.958 76.7137 159.926 76.6963 159.893 76.6778C159.579 76.5047 158.749 76.4995 158.393 76.5715C158.077 76.6332 157.326 76.9898 156.929 77.643C156.536 78.2858 156.5 79.0727 156.865 80.6772C157.193 82.1127 158.036 83.0232 158.613 83.6464L158.613 83.6464C158.763 83.8092 158.896 83.9523 158.996 84.0801L160.422 85.659C160.672 85.8784 161 86.1892 161.331 86.504C161.714 86.8679 162.103 87.2371 162.384 87.4761C163.09 88.071 162.773 89.8041 162.773 89.8041C163.21 89.8081 163.677 89.8163 164.149 89.8247L164.152 89.8247L164.152 89.8247H164.152C165.685 89.8517 167.279 89.8798 168.156 89.7698C168.74 89.6961 169.572 88.5184 169.956 87.8618C170.201 87.447 170.83 87.339 171.125 87.9012C171.339 88.3092 172.169 89.643 172.839 89.7492C173.581 89.8692 174.954 89.691 174.954 89.691C174.954 89.691 174.708 88.7927 174.747 88.1087C174.758 87.9221 174.761 87.786 174.764 87.6671C174.772 87.351 174.776 87.1556 174.922 86.4544C175.122 85.491 176.964 83.3481 176.964 83.3481C177.447 82.6521 177.936 81.4915 178.083 80.9755C178.297 80.2247 178.445 78.6732 178.496 77.9892C178.544 77.3481 178.565 76.8132 178.565 75.9287C178.565 75.7938 178.565 75.6847 178.565 75.59C178.567 75.1553 178.567 75.0253 178.53 74.1047C178.438 71.7012 175.973 71.9138 175.277 73.0092C175.048 73.3672 174.922 73.8464 174.852 74.1122C174.807 74.283 174.785 74.3655 174.774 74.271C174.711 73.6847 174.5 72.0184 174.125 71.4287C173.969 71.1835 173.391 70.6778 172.964 70.5938C172.436 70.491 171.816 70.5184 171.312 70.6075C170.986 70.6658 170.376 71.0258 170.134 71.4287C169.884 71.8446 169.801 72.7424 169.738 73.4181C169.708 73.7311 169.684 73.9965 169.649 74.1441C169.643 74.1683 169.638 74.0935 169.627 73.9502V73.9502C169.589 73.4022 169.481 71.8519 168.989 71.0052C168.778 70.6418 168.214 70.2595 167.677 70.1498C167.17 70.0452 166.596 70.0967 166.107 70.2441C165.526 70.4172 165.132 70.9075 164.931 71.4287C164.728 71.9547 164.719 72.8344 164.712 73.5145C164.709 73.7586 164.707 73.977 164.696 74.1441C164.688 74.2844 164.607 74.0307 164.484 73.6425L164.484 73.6425L164.484 73.6425L164.484 73.6425L164.484 73.6425C164.357 73.2436 164.185 72.7026 164 72.3012ZM173.757 78.7578C173.757 78.4028 173.469 78.115 173.114 78.115C172.759 78.115 172.471 78.4028 172.471 78.7578V84.6875C172.471 85.0426 172.759 85.3304 173.114 85.3304C173.469 85.3304 173.757 85.0426 173.757 84.6875V78.7578ZM169.628 78.111C169.983 78.1094 170.272 78.3958 170.274 78.7509L170.301 84.7046C170.303 85.0596 170.016 85.3488 169.661 85.3504C169.306 85.352 169.017 85.0655 169.016 84.7105L168.988 78.7568C168.987 78.4018 169.273 78.1126 169.628 78.111ZM166.879 78.8041C166.877 78.4491 166.588 78.163 166.233 78.1652C165.878 78.1674 165.592 78.4569 165.594 78.812L165.63 84.6851C165.632 85.0402 165.922 85.3262 166.277 85.324C166.632 85.3218 166.918 85.0323 166.915 84.6772L166.879 78.8041Z" fill="url(#paint2_radial_50_9958)"/>
<path fill-rule="evenodd" clip-rule="evenodd" d="M334.172 43.174H339.214V48.346L346.344 41.174L339.214 34.004V39.214H334.172H327.172V34L320 41.174L327.172 48.346V43.172L334.172 43.174Z" fill="#919199"/>
<path fill-rule="evenodd" clip-rule="evenodd" d="M73.1719 173.172L73.1719 178.214L67.9999 178.214L75.1719 185.344L82.3419 178.214L77.1319 178.214L77.1319 173.172L77.1319 166.172L82.3459 166.172L75.1719 159L67.9999 166.172L73.1739 166.172L73.1719 173.172Z" fill="#919199"/>
</g>
<defs>
<filter id="filter0_i_50_9958" x="0" y="0" width="164" height="74" filterUnits="userSpaceOnUse" color-interpolation-filters="sRGB">
<feFlood flood-opacity="0" result="BackgroundImageFix"/>
<feBlend mode="normal" in="SourceGraphic" in2="BackgroundImageFix" result="shape"/>
<feColorMatrix in="SourceAlpha" type="matrix" values="0 0 0 0 0 0 0 0 0 0 0 0 0 0 0 0 0 0 127 0" result="hardAlpha"/>
<feMorphology radius="16" operator="erode" in="SourceAlpha" result="effect1_innerShadow_50_9958"/>
<feOffset/>
<feGaussianBlur stdDeviation="12"/>
<feComposite in2="hardAlpha" operator="arithmetic" k2="-1" k3="1"/>
<feColorMatrix type="matrix" values="0 0 0 0 0.388235 0 0 0 0 0.4 0 0 0 0 0.945098 0 0 0 0.12 0"/>
<feBlend mode="normal" in2="shape" result="effect1_innerShadow_50_9958"/>
</filter>
<filter id="filter1_f_50_9958" x="-24" y="-24" width="212" height="122" filterUnits="userSpaceOnUse" color-interpolation-filters="sRGB">
<feFlood flood-opacity="0" result="BackgroundImageFix"/>
<feBlend mode="normal" in="SourceGraphic" in2="BackgroundImageFix" result="shape"/>
<feGaussianBlur stdDeviation="12" result="effect1_foregroundBlur_50_9958"/>
</filter>
<linearGradient id="paint0_linear_50_9958" x1="83" y1="0" x2="83" y2="174" gradientUnits="userSpaceOnUse">
<stop offset="0.357286" stop-color="#414147" stop-opacity="0"/>
<stop offset="1" stop-color="#4B4B52"/>
</linearGradient>
<linearGradient id="paint1_linear_50_9958" x1="2" y1="37" x2="334" y2="37" gradientUnits="userSpaceOnUse">
<stop offset="0.2214" stop-color="#414147" stop-opacity="0"/>
<stop offset="1" stop-color="#4B4B52"/>
</linearGradient>
<radialGradient id="paint2_radial_50_9958" cx="0" cy="0" r="1" gradientUnits="userSpaceOnUse" gradientTransform="translate(159.051 73.3871) rotate(38.4477) scale(13.2374 12.9938)">
<stop stop-color="#FDA4AF"/>
<stop offset="1" stop-color="#FB7185"/>
</radialGradient>
<clipPath id="clip0_50_9958">
<rect width="346.344" height="185.344" fill="white"/>
</clipPath>
</defs>
</svg>
