<svg width="16" height="16" viewBox="0 0 16 16" fill="none" xmlns="http://www.w3.org/2000/svg">
<g clip-path="url(#clip0_80_25013)">
<path fill-rule="evenodd" clip-rule="evenodd" d="M5.62646 3.18715C5.35854 2.6063 4.34366 2.48948 3.82926 2.68024C3.048 2.97067 2.94619 3.56009 2.93762 3.79693C2.92061 4.26925 3.09529 4.74096 3.23203 5.11019C3.27617 5.22939 3.31635 5.3379 3.34486 5.43231C3.40968 5.64935 3.51638 5.85325 3.61365 6.03914C3.6965 6.19745 3.77251 6.3427 3.80997 6.47184C3.89946 6.77466 3.85094 6.70845 3.68565 6.48287L3.68563 6.48285C3.65496 6.441 3.62027 6.39366 3.5817 6.34217C3.41062 6.11536 3.31534 6.06335 3.11852 5.9559L3.05872 5.92314C2.8626 5.8149 2.34391 5.81169 2.121 5.8567C1.92381 5.89528 1.45442 6.11819 1.20579 6.5265C0.960374 6.92838 0.937869 7.42028 1.16614 8.42337C1.37093 9.32072 1.8978 9.88993 2.25842 10.2795C2.3526 10.3813 2.43543 10.4708 2.49823 10.5507L3.38987 11.5377C3.54592 11.6748 3.7506 11.8692 3.95785 12.0659L3.9579 12.066C4.19754 12.2935 4.4406 12.5242 4.61587 12.6736C5.0574 13.0455 4.85914 14.129 4.85914 14.129C5.13336 14.1315 5.42552 14.1367 5.72131 14.1419H5.72136H5.7214C6.67982 14.1588 7.67636 14.1763 8.22421 14.1076C8.58965 14.0615 9.10942 13.3252 9.34947 12.9148C9.50272 12.6554 9.89603 12.5879 10.0804 12.9394C10.2143 13.1945 10.733 14.0282 11.152 14.0947C11.6161 14.1697 12.4745 14.0583 12.4745 14.0583C12.4745 14.0583 12.3202 13.4967 12.3448 13.0691C12.3519 12.9525 12.3538 12.8674 12.3556 12.793C12.3602 12.5954 12.363 12.4733 12.4541 12.0349C12.5795 11.4326 13.7305 10.093 13.7305 10.093C14.0327 9.65794 14.3381 8.93242 14.4303 8.60984C14.5643 8.14045 14.6564 7.17058 14.6886 6.74298C14.7186 6.34217 14.7314 6.0078 14.7314 5.45482C14.7314 5.37079 14.7317 5.30276 14.7318 5.24373V5.24341V5.24311C14.7326 4.97134 14.7329 4.8901 14.71 4.31455C14.6521 2.81206 13.1111 2.94495 12.676 3.62975C12.5331 3.85351 12.4542 4.15311 12.4104 4.31922L12.4104 4.31923C12.3823 4.42601 12.3687 4.47763 12.362 4.41851C12.3223 4.05199 12.1905 3.01032 11.9558 2.64166C11.8583 2.48841 11.4971 2.17227 11.2303 2.11975C10.9002 2.05545 10.5122 2.0726 10.1972 2.12833C9.99355 2.16477 9.61204 2.38982 9.46093 2.64166C9.30494 2.90165 9.25254 3.46293 9.21311 3.88532L9.21311 3.88535L9.21311 3.88538C9.19484 4.08105 9.17936 4.24692 9.15764 4.3392C9.15387 4.3543 9.1506 4.30756 9.14434 4.21801C9.12038 3.8754 9.05261 2.90626 8.74505 2.37696C8.61323 2.14976 8.26065 1.91078 7.92521 1.84219C7.608 1.77682 7.24898 1.80897 6.94356 1.90113C6.58026 2.00937 6.33377 2.31587 6.20838 2.64166C6.08142 2.97051 6.07574 3.52046 6.07134 3.94562C6.06977 4.09822 6.06836 4.23475 6.06156 4.3392C6.05628 4.42694 6.00589 4.26833 5.9288 4.02564C5.84958 3.77625 5.74215 3.43807 5.62646 3.18715ZM11.7258 7.22345C11.7258 7.0015 11.5459 6.82157 11.3239 6.82157C11.1019 6.82157 10.922 7.0015 10.922 7.22345V10.9304C10.922 11.1523 11.1019 11.3323 11.3239 11.3323C11.5459 11.3323 11.7258 11.1523 11.7258 10.9304V7.22345ZM9.14472 6.81909C9.36667 6.81807 9.54743 6.99716 9.54845 7.21911L9.5656 10.9411C9.56662 11.163 9.38752 11.3438 9.16557 11.3448C8.94362 11.3458 8.76287 11.1667 8.76185 10.9448L8.7447 7.22281C8.74368 7.00086 8.92277 6.82011 9.14472 6.81909ZM7.42652 7.25238C7.42516 7.03043 7.24413 6.85161 7.02219 6.85297C6.80024 6.85433 6.62142 7.03536 6.62278 7.25731L6.64528 10.9289C6.64664 11.1508 6.82767 11.3296 7.04962 11.3283C7.27157 11.3269 7.45039 11.1459 7.44903 10.924L7.42652 7.25238Z" fill="url(#paint0_radial_80_25013)"/>
</g>
<defs>
<radialGradient id="paint0_radial_80_25013" cx="0" cy="0" r="1" gradientUnits="userSpaceOnUse" gradientTransform="translate(2.53251 3.86599) rotate(38.4477) scale(8.27531 8.12302)">
<stop stop-color="#FDA4AF"/>
<stop offset="1" stop-color="#FB7185"/>
</radialGradient>
<clipPath id="clip0_80_25013">
<rect width="16" height="16" fill="white"/>
</clipPath>
</defs>
</svg>
